<?xml version="1.0" encoding="utf-8"?>
<!-- Generator: Adobe Illustrator 16.0.0, SVG Export Plug-In . SVG Version: 6.00 Build 0)  -->
<!DOCTYPE svg PUBLIC "-//W3C//DTD SVG 1.0//EN" "http://www.w3.org/TR/2001/REC-SVG-20010904/DTD/svg10.dtd">
<svg version="1.0" id="Layer_1" xmlns="http://www.w3.org/2000/svg" xmlns:xlink="http://www.w3.org/1999/xlink" x="0px" y="0px"
	 width="73.157px" height="49px" viewBox="0 0 73.157 49" enable-background="new 0 0 73.157 49" xml:space="preserve">
<path fill="none" stroke="#291D14" stroke-width="0.407" d="M62.396,16.433V0.508L2.96,14.943 M13.122,44.361v-6.704L4.491,39.75
	v6.707L13.122,44.361z"/>
<g>
	<g>
		<defs>
			<polygon id="SVGID_1_" points="0.005,20.116 0.005,42.616 59.44,28.182 59.44,5.68 			"/>
		</defs>
		<clipPath id="SVGID_2_">
			<use xlink:href="#SVGID_1_"  overflow="visible"/>
		</clipPath>
		
			<linearGradient id="SVGID_3_" gradientUnits="userSpaceOnUse" x1="-47.8872" y1="-538.2124" x2="-45.9233" y2="-538.2124" gradientTransform="matrix(30.2653 0 0 30.2653 1449.3188 16313.291)">
			<stop  offset="0" style="stop-color:#833594"/>
			<stop  offset="0.1035" style="stop-color:#92338C"/>
			<stop  offset="0.4056" style="stop-color:#B92C7A"/>
			<stop  offset="0.6666" style="stop-color:#D4266D"/>
			<stop  offset="0.8733" style="stop-color:#E52265"/>
			<stop  offset="1" style="stop-color:#EE1F61"/>
		</linearGradient>
		<rect x="0.005" y="5.68" clip-path="url(#SVGID_2_)" fill="url(#SVGID_3_)" width="59.436" height="36.936"/>
	</g>
</g>
<g>
	<g>
		<defs>
			<rect id="SVGID_4_" x="0.005" width="73.156" height="49.308"/>
		</defs>
		<clipPath id="SVGID_5_">
			<use xlink:href="#SVGID_4_"  overflow="visible"/>
		</clipPath>
		<path clip-path="url(#SVGID_5_)" fill="none" stroke="#2A2F34" stroke-width="0.544" d="M71.901,9.238h1.26 M5.765,48.775h1.262"
			/>
	</g>
</g>
<polygon fill="none" stroke="#291D14" stroke-width="0.407" points="66.511,4.478 66.511,10.278 70.021,9.422 70.021,3.626 "/>
<g enable-background="new    ">
	<path fill="#FFFFFF" d="M10.982,26.668L8.83,27.206l1.455,5.836l-1.729,0.432l-1.456-5.837l-2.113,0.526l-0.332-1.335l5.994-1.495
		L10.982,26.668z"/>
	<path fill="#FFFFFF" d="M15.2,29.127l-0.936,0.232l0.632,2.533l-1.729,0.431l-1.788-7.173l2.822-0.703
		c0.414-0.104,0.801-0.15,1.158-0.14c0.358,0.01,0.679,0.076,0.961,0.2c0.281,0.123,0.52,0.303,0.713,0.541
		c0.193,0.238,0.334,0.534,0.423,0.889c0.068,0.275,0.101,0.529,0.095,0.758c-0.006,0.231-0.043,0.441-0.112,0.631
		c-0.069,0.19-0.166,0.364-0.292,0.521c-0.124,0.16-0.269,0.307-0.433,0.442l2.218,2.517l0.019,0.074l-1.853,0.462L15.2,29.127z
		 M13.932,28.026l1.094-0.273c0.328-0.082,0.554-0.229,0.677-0.443s0.146-0.475,0.069-0.783c-0.077-0.309-0.222-0.53-0.433-0.664
		c-0.212-0.133-0.479-0.16-0.805-0.079l-1.094,0.272L13.932,28.026z"/>
	<path fill="#FFFFFF" d="M23.438,26.535l-2.72,0.679l0.426,1.708l3.212-0.801l0.332,1.331l-4.94,1.231L17.96,23.51l4.95-1.234
		l0.333,1.335l-3.222,0.803l0.377,1.512l2.719-0.678L23.438,26.535z"/>
	<path fill="#FFFFFF" d="M31.383,27.782l-1.719,0.43l-3.655-3.83l1.112,4.463l-1.729,0.432l-1.787-7.173l1.729-0.431l3.648,3.83
		L27.87,21.04l1.725-0.43L31.383,27.782z"/>
	<path fill="#FFFFFF" d="M32.477,27.509l-1.788-7.172l2.311-0.576c0.485-0.121,0.952-0.149,1.402-0.083
		c0.448,0.066,0.857,0.214,1.228,0.444c0.37,0.231,0.689,0.537,0.959,0.917s0.467,0.824,0.592,1.331l0.076,0.3
		c0.127,0.509,0.16,0.994,0.102,1.456c-0.061,0.46-0.199,0.879-0.418,1.254c-0.219,0.375-0.509,0.697-0.871,0.966
		c-0.361,0.269-0.783,0.462-1.262,0.581L32.477,27.509z M32.75,21.242l1.123,4.507l0.602-0.15c0.496-0.123,0.833-0.395,1.011-0.813
		c0.178-0.42,0.181-0.978,0.007-1.673L35.415,22.8c-0.173-0.692-0.437-1.181-0.79-1.467c-0.354-0.285-0.785-0.364-1.294-0.237
		L32.75,21.242z"/>
	<path fill="#FFFFFF" d="M40.84,25.424l-1.725,0.43l-1.787-7.172l1.723-0.43L40.84,25.424z"/>
	<path fill="#FFFFFF" d="M48.032,23.631l-1.719,0.429l-3.654-3.83l1.113,4.463l-1.729,0.431l-1.789-7.172l1.729-0.431l3.65,3.831
		l-1.113-4.463l1.725-0.43L48.032,23.631z"/>
	<path fill="#FFFFFF" d="M54.776,21.008c-0.066,0.125-0.168,0.265-0.303,0.421c-0.135,0.157-0.309,0.313-0.521,0.47
		c-0.211,0.158-0.465,0.307-0.76,0.449c-0.293,0.141-0.635,0.26-1.021,0.356c-0.48,0.12-0.934,0.149-1.359,0.093
		c-0.426-0.058-0.813-0.201-1.162-0.428c-0.35-0.226-0.652-0.536-0.91-0.931s-0.455-0.871-0.594-1.429l-0.1-0.399
		c-0.139-0.559-0.188-1.073-0.145-1.544c0.043-0.472,0.162-0.889,0.359-1.254s0.463-0.671,0.799-0.919
		c0.336-0.248,0.727-0.427,1.174-0.538c0.496-0.124,0.936-0.17,1.32-0.138c0.385,0.031,0.723,0.125,1.012,0.283
		c0.291,0.158,0.537,0.371,0.736,0.639c0.199,0.268,0.361,0.576,0.486,0.925l-1.664,0.415c-0.07-0.171-0.15-0.318-0.238-0.443
		c-0.09-0.124-0.193-0.222-0.314-0.293c-0.121-0.071-0.258-0.113-0.414-0.127c-0.154-0.014-0.332,0.004-0.533,0.054
		c-0.207,0.052-0.383,0.144-0.531,0.274c-0.146,0.131-0.256,0.301-0.33,0.508c-0.074,0.208-0.109,0.456-0.105,0.741
		c0.002,0.285,0.049,0.608,0.139,0.969l0.104,0.41c0.178,0.715,0.434,1.223,0.768,1.521c0.334,0.299,0.764,0.382,1.291,0.251
		c0.137-0.034,0.258-0.074,0.361-0.118c0.104-0.045,0.193-0.093,0.268-0.144c0.076-0.05,0.137-0.099,0.186-0.151
		c0.049-0.05,0.086-0.096,0.115-0.138L52.61,19.68l-1.203,0.3l-0.295-1.187l2.93-0.73L54.776,21.008z"/>
</g>
</svg>
