<?xml version="1.0" encoding="utf-8"?>
<!-- Generator: Adobe Illustrator 16.0.0, SVG Export Plug-In . SVG Version: 6.00 Build 0)  -->
<!DOCTYPE svg PUBLIC "-//W3C//DTD SVG 1.1//EN" "http://www.w3.org/Graphics/SVG/1.1/DTD/svg11.dtd">
<svg version="1.1" id="Layer_1" xmlns="http://www.w3.org/2000/svg" xmlns:xlink="http://www.w3.org/1999/xlink" x="0px" y="0px"
	 width="50px" height="50px" viewBox="0 0 50 50" enable-background="new 0 0 50 50" xml:space="preserve">
<path id="XMLID_450_" opacity="0.6" fill="#010101" d="M42.252,18.226c0-9.513-7.739-17.252-17.252-17.252S7.748,8.713,7.748,18.226
	c0,8.67,6.43,15.866,14.771,17.073l0.001,3.225h-3.059c-1.37,0-2.48,1.111-2.48,2.482c0,1.369,1.11,2.48,2.48,2.48h3.059v3.059
	c0,1.369,1.11,2.48,2.48,2.48s2.481-1.111,2.481-2.48v-3.059h3.058c1.37,0,2.481-1.111,2.481-2.48c0-1.371-1.111-2.482-2.481-2.482
	h-3.058v-3.225C35.822,34.094,42.252,26.896,42.252,18.226z M12.71,18.226c0-6.776,5.514-12.29,12.29-12.29s12.29,5.514,12.29,12.29
	c0,6.777-5.514,12.29-12.29,12.29S12.71,25.003,12.71,18.226z"/>
</svg>
