<?xml version="1.0" encoding="utf-8"?>
<!-- Generator: Adobe Illustrator 16.0.0, SVG Export Plug-In . SVG Version: 6.00 Build 0)  -->
<!DOCTYPE svg PUBLIC "-//W3C//DTD SVG 1.1//EN" "http://www.w3.org/Graphics/SVG/1.1/DTD/svg11.dtd">
<svg version="1.1" id="Layer_1" xmlns="http://www.w3.org/2000/svg" xmlns:xlink="http://www.w3.org/1999/xlink" x="0px" y="0px"
	 width="50px" height="50px" viewBox="0 0 50 50" enable-background="new 0 0 50 50" xml:space="preserve">
<path id="XMLID_450_" display="none" opacity="0.6" fill="#010101" d="M42.252,18.226c0-9.513-7.739-17.252-17.252-17.252
	S7.748,8.713,7.748,18.226c0,8.67,6.43,15.866,14.771,17.073l0.001,3.225h-3.059c-1.37,0-2.48,1.111-2.48,2.482
	c0,1.369,1.11,2.48,2.48,2.48h3.059v3.059c0,1.369,1.11,2.48,2.48,2.48s2.481-1.111,2.481-2.48v-3.059h3.058
	c1.37,0,2.481-1.111,2.481-2.48c0-1.371-1.111-2.482-2.481-2.482h-3.058v-3.225C35.822,34.094,42.252,26.896,42.252,18.226z
	 M12.71,18.226c0-6.776,5.514-12.29,12.29-12.29s12.29,5.514,12.29,12.29c0,6.777-5.514,12.29-12.29,12.29
	S12.71,25.003,12.71,18.226z"/>
<g opacity="0.6">
	<path fill="#010101" d="M19.865,48C10.014,48,2,39.986,2,30.136s8.014-17.865,17.865-17.865c9.85,0,17.865,8.014,17.865,17.865
		S29.715,48,19.865,48z M19.865,18.952c-6.167,0-11.184,5.017-11.184,11.184s5.017,11.184,11.184,11.184
		c6.167,0,11.184-5.017,11.184-11.184C31.048,23.969,26.031,18.952,19.865,18.952z"/>
	<polygon fill="#010101" points="48,19.865 41.319,19.865 41.319,8.681 30.136,8.681 30.136,2 48,2 	"/>
	
		<rect x="34.056" y="2.334" transform="matrix(0.7071 0.7071 -0.7071 0.7071 19.8669 -22.7524)" fill="#010101" width="6.681" height="20.54"/>
</g>
</svg>
