<?xml version="1.0" encoding="utf-8"?>
<!-- Generator: Adobe Illustrator 16.0.0, SVG Export Plug-In . SVG Version: 6.00 Build 0)  -->
<!DOCTYPE svg PUBLIC "-//W3C//DTD SVG 1.1//EN" "http://www.w3.org/Graphics/SVG/1.1/DTD/svg11.dtd">
<svg version="1.1" id="Layer_1" xmlns="http://www.w3.org/2000/svg" xmlns:xlink="http://www.w3.org/1999/xlink" x="0px" y="0px"
	 width="300px" height="47.67px" viewBox="0 0 300 47.67" enable-background="new 0 0 300 47.67" xml:space="preserve">
<g>
	<g id="XMLID_37_">
		<circle id="XMLID_40_" fill="#FAED24" cx="239.258" cy="33.109" r="12.714"/>
		<circle id="XMLID_39_" opacity="0.33" fill="#B9539F" cx="234.109" cy="24.19" r="12.713"/>
		<circle id="XMLID_38_" opacity="0.5" fill="#2AAAE2" cx="246.577" cy="23.563" r="12.713"/>
	</g>
	<g id="XMLID_1_" opacity="0.75">
		<path id="XMLID_35_" fill="#202020" d="M60.871,11.826h3.187v3.543c0.951-1.396,1.953-2.441,3.009-3.132
			c1.055-0.69,2.153-1.036,3.298-1.036c0.861,0,1.783,0.275,2.763,0.825l-1.626,2.63c-0.654-0.283-1.204-0.424-1.649-0.424
			c-1.04,0-2.043,0.427-3.008,1.281c-0.967,0.854-1.702,2.18-2.207,3.979c-0.387,1.381-0.58,4.174-0.58,8.379v8.201h-3.187V11.826z"
			/>
		<path id="XMLID_33_" fill="#202020" d="M87.948,2.466v3.053c-1.145-0.49-2.125-0.736-2.942-0.736
			c-0.609,0-1.114,0.123-1.515,0.368c-0.401,0.245-0.655,0.527-0.758,0.846c-0.104,0.32-0.155,1.17-0.155,2.552l-0.003,3.276h5.061
			v2.697h-5.063l-0.019,21.55h-3.119v-21.55h-3.188v-2.697h3.188V8.037c0-1.738,0.159-2.979,0.479-3.722
			c0.319-0.742,0.861-1.341,1.627-1.794c0.764-0.453,1.689-0.679,2.775-0.679C85.326,1.842,86.537,2.05,87.948,2.466z"/>
		<path id="XMLID_31_" fill="#202020" d="M91.894,11.826h3.12v11.321c0,2.764,0.148,4.665,0.446,5.705
			c0.446,1.486,1.298,2.659,2.556,3.521s2.756,1.293,4.498,1.293c1.741,0,3.218-0.42,4.431-1.261c1.212-0.838,2.05-1.941,2.51-3.309
			c0.313-0.936,0.469-2.92,0.469-5.95V11.826h3.187v11.901c0,3.342-0.39,5.862-1.171,7.555c-0.779,1.693-1.953,3.02-3.521,3.978
			c-1.567,0.957-3.532,1.438-5.894,1.438c-2.363,0-4.335-0.48-5.917-1.438c-1.582-0.958-2.763-2.296-3.543-4.012
			c-0.781-1.717-1.169-4.297-1.169-7.744V11.826z"/>
		<path id="XMLID_29_" fill="#202020" d="M120.019,11.826h3.12v4.19c1.086-1.546,2.202-2.674,3.347-3.388
			c1.577-0.951,3.235-1.427,4.976-1.427c1.174,0,2.29,0.231,3.347,0.691c1.056,0.461,1.919,1.073,2.587,1.839
			c0.67,0.766,1.25,1.861,1.741,3.287c1.037-1.901,2.334-3.347,3.891-4.335c1.557-0.988,3.231-1.482,5.026-1.482
			c1.674,0,3.152,0.424,4.436,1.271c1.281,0.847,2.232,2.027,2.856,3.543c0.624,1.515,0.934,3.789,0.934,6.819v13.238h-3.188V22.835
			c0-2.6-0.186-4.386-0.554-5.36c-0.371-0.973-1.004-1.756-1.901-2.351c-0.896-0.594-1.965-0.892-3.209-0.892
			c-1.51,0-2.891,0.446-4.142,1.337c-1.251,0.891-2.167,2.08-2.743,3.565c-0.578,1.486-0.866,3.967-0.866,7.443v9.494h-3.12V23.66
			c0-2.927-0.182-4.915-0.547-5.962c-0.364-1.048-0.999-1.887-1.905-2.519c-0.906-0.631-1.984-0.947-3.231-0.947
			c-1.441,0-2.789,0.435-4.045,1.304c-1.255,0.869-2.184,2.04-2.785,3.51c-0.602,1.471-0.903,3.722-0.903,6.753v10.273h-3.12V11.826
			z"/>
		<g id="XMLID_20_">
			<path id="XMLID_27_" fill="#202020" d="M265.095,2.366h3.121v9.003h4.945v2.697h-4.945v21.551h-3.121V14.066h-4.257V11.37h4.257
				V2.366z"/>
			<path id="XMLID_25_" fill="#202020" d="M277.843,2.009h3.12v13.706c1.263-1.664,2.651-2.909,4.168-3.733
				c1.514-0.825,3.155-1.237,4.924-1.237c1.813,0,3.422,0.461,4.826,1.382c1.403,0.921,2.44,2.158,3.107,3.71
				c0.671,1.553,1.005,3.985,1.005,7.299v12.48h-3.121V24.05c0-2.793-0.112-4.658-0.336-5.594c-0.384-1.605-1.087-2.812-2.104-3.622
				c-1.017-0.81-2.352-1.214-4-1.214c-1.887,0-3.577,0.624-5.07,1.872c-1.493,1.247-2.478,2.792-2.953,4.635
				c-0.297,1.188-0.445,3.388-0.445,6.597v8.893h-3.12V2.009z"/>
		</g>
		<rect id="XMLID_18_" x="165.65" y="4.748" fill="#202020" width="16.524" height="2.875"/>
		<path id="XMLID_16_" fill="#202020" d="M22.722,14.924c-2.45-2.481-5.396-3.723-8.839-3.723c-1.973,0-4.395,0.424-5.998,1.271
			C6.283,13.319,4,14.589,3,16.283V12H1v34h2V31.907c1,1.589,3.401,2.785,5.019,3.587c1.619,0.802,3.707,1.203,5.638,1.203
			c3.428,0,6.514-1.244,8.94-3.733c2.427-2.487,3.721-5.515,3.721-9.082C26.317,20.391,25.171,17.405,22.722,14.924z"/>
		<path id="XMLID_14_" fill="#202020" d="M214.03,14.479c-2.429-2.488-5.355-3.733-8.784-3.733c-1.93,0-4.472,0.398-6.089,1.192
			c-1.619,0.795-3.157,1.995-5.157,3.6V2h-3v34h3v-4.841c2,1.695,3.419,2.965,5.022,3.812c1.603,0.847,3.776,1.27,5.75,1.27
			c3.442,0,6.583-1.239,9.032-3.72c2.449-2.482,3.77-5.477,3.77-8.983C217.574,19.987,216.457,16.967,214.03,14.479z"/>
		<path id="XMLID_12_" fill="#202020" d="M180.457,31.469c-0.817,0.711-1.811,1.28-2.979,1.71c-1.166,0.429-2.367,0.645-3.602,0.645
			c-2.559,0-4.709-0.999-6.449-2.799c-1.74-1.803-2.64-3.99-2.699-7.024h21.817c-0.029-3.034-0.922-5.978-2.676-8.193
			c-2.47-3.135-5.771-4.654-9.904-4.654c-4.015,0-7.221,1.556-9.614,4.616c-1.89,2.407-2.833,5.16-2.833,8.236
			c0,3.268,1.114,6.205,3.347,8.797c2.231,2.594,5.324,3.894,9.279,3.894c1.785,0,3.384-0.27,4.796-0.813
			c1.413-0.542,2.685-1.333,3.814-2.372c1.131-1.04,2.126-2.406,2.989-4.101l-2.631-1.382
			C182.161,29.611,181.275,30.759,180.457,31.469z"/>
		<path id="XMLID_10_" fill="#202020" d="M49.993,31.469c-0.818,0.711-1.81,1.28-2.978,1.71c-1.168,0.429-2.369,0.645-3.604,0.645
			c-2.558,0-4.708-0.999-6.449-2.799c-1.741-1.803-2.641-3.99-2.7-7.024h21.818c-0.03-3.034-0.922-5.978-2.677-8.193
			c-2.468-3.135-5.769-4.654-9.903-4.654c-4.016,0-7.221,1.556-9.614,4.616c-1.889,2.407-2.833,5.16-2.833,8.236
			c0,3.268,1.115,6.205,3.346,8.797c2.23,2.594,5.324,3.894,9.279,3.894c1.784,0,3.383-0.27,4.795-0.813
			c1.413-0.542,2.685-1.333,3.815-2.372c1.13-1.04,2.127-2.406,2.989-4.101l-2.629-1.382C51.697,29.611,50.812,30.759,49.993,31.469
			z"/>
	</g>
</g>
</svg>
