<?xml version="1.0" encoding="utf-8"?>
<!-- Generator: Adobe Illustrator 16.0.0, SVG Export Plug-In . SVG Version: 6.00 Build 0)  -->
<!DOCTYPE svg PUBLIC "-//W3C//DTD SVG 1.0//EN" "http://www.w3.org/TR/2001/REC-SVG-20010904/DTD/svg10.dtd">
<svg version="1.0" id="Layer_1" xmlns="http://www.w3.org/2000/svg" xmlns:xlink="http://www.w3.org/1999/xlink" x="0px" y="0px"
	 width="73.157px" height="49px" viewBox="0 0 73.157 49" enable-background="new 0 0 73.157 49" xml:space="preserve">
<path fill="none" stroke="#291D14" stroke-width="0.407" d="M62.396,16.433V0.508L2.96,14.943 M13.122,44.361v-6.704L4.491,39.75
	v6.707L13.122,44.361z"/>
<g>
	<g>
		<defs>
			<polygon id="SVGID_1_" points="0.005,20.116 0.005,42.616 59.44,28.182 59.44,5.68 			"/>
		</defs>
		<clipPath id="SVGID_2_">
			<use xlink:href="#SVGID_1_"  overflow="visible"/>
		</clipPath>
		
			<linearGradient id="SVGID_3_" gradientUnits="userSpaceOnUse" x1="-47.8872" y1="-538.2124" x2="-45.9233" y2="-538.2124" gradientTransform="matrix(30.2653 0 0 30.2653 1449.3188 16313.291)">
			<stop  offset="0" style="stop-color:#833594"/>
			<stop  offset="0.1035" style="stop-color:#92338C"/>
			<stop  offset="0.4056" style="stop-color:#B92C7A"/>
			<stop  offset="0.6666" style="stop-color:#D4266D"/>
			<stop  offset="0.8733" style="stop-color:#E52265"/>
			<stop  offset="1" style="stop-color:#EE1F61"/>
		</linearGradient>
		<rect x="0.005" y="5.68" clip-path="url(#SVGID_2_)" fill="url(#SVGID_3_)" width="59.436" height="36.936"/>
	</g>
</g>
<g>
	<g>
		<defs>
			<rect id="SVGID_4_" x="0.005" width="73.156" height="49.308"/>
		</defs>
		<clipPath id="SVGID_5_">
			<use xlink:href="#SVGID_4_"  overflow="visible"/>
		</clipPath>
		<path clip-path="url(#SVGID_5_)" fill="none" stroke="#2A2F34" stroke-width="0.544" d="M71.901,9.238h1.26 M5.765,48.775h1.262"
			/>
	</g>
</g>
<polygon fill="none" stroke="#291D14" stroke-width="0.407" points="66.511,4.478 66.511,10.278 70.021,9.422 70.021,3.626 "/>
<text transform="matrix(0.9703 -0.2419 0.2419 0.9703 6.2656 34.0435)" fill="#FFFFFF" font-family="'Roboto-Black'" font-size="10.397">TRENDING</text>
<path fill="none" stroke="#291D14" stroke-width="0.407" d="M62.396,16.434V0.508L2.961,14.943 M13.122,44.362v-6.707L4.491,39.75
	v6.709L13.122,44.362z"/>
<g>
	<g>
		<defs>
			<polygon id="SVGID_6_" points="0.005,20.118 0.005,42.618 59.44,28.182 59.44,5.681 			"/>
		</defs>
		<clipPath id="SVGID_7_">
			<use xlink:href="#SVGID_6_"  overflow="visible"/>
		</clipPath>
		
			<linearGradient id="SVGID_8_" gradientUnits="userSpaceOnUse" x1="-47.8872" y1="-538.2124" x2="-45.9238" y2="-538.2124" gradientTransform="matrix(30.2653 0 0 30.2653 1449.3188 16313.291)">
			<stop  offset="0" style="stop-color:#F8951D"/>
			<stop  offset="1" style="stop-color:#FFD500"/>
		</linearGradient>
		<rect x="0.005" y="5.681" clip-path="url(#SVGID_7_)" fill="url(#SVGID_8_)" width="59.435" height="36.937"/>
	</g>
</g>
<g>
	<g>
		<defs>
			<rect id="SVGID_9_" x="0.005" width="73.158" height="49.308"/>
		</defs>
		<clipPath id="SVGID_10_">
			<use xlink:href="#SVGID_9_"  overflow="visible"/>
		</clipPath>
		<path clip-path="url(#SVGID_10_)" fill="none" stroke="#2A2F34" stroke-width="0.544" d="M71.902,9.24h1.261 M5.765,48.775h1.261"
			/>
	</g>
</g>
<polygon fill="none" stroke="#291D14" stroke-width="0.407" points="66.512,4.478 66.512,10.277 70.021,9.424 70.021,3.626 "/>
<text transform="matrix(0.9315 -0.2322 0.2419 0.9703 8.085 33.6333)" font-family="'Roboto-Medium'" font-size="10.3968">PREMIUM</text>
<path fill="none" stroke="#291D14" stroke-width="0.407" d="M62.395,16.434V0.508L2.961,14.943 M13.122,44.362v-6.707L4.491,39.75
	v6.709L13.122,44.362z"/>
<g>
	<g>
		<defs>
			<polygon id="SVGID_11_" points="0.005,20.118 0.005,42.618 59.44,28.182 59.44,5.681 			"/>
		</defs>
		<clipPath id="SVGID_12_">
			<use xlink:href="#SVGID_11_"  overflow="visible"/>
		</clipPath>
		
			<linearGradient id="SVGID_13_" gradientUnits="userSpaceOnUse" x1="-47.8872" y1="-538.2124" x2="-45.9238" y2="-538.2124" gradientTransform="matrix(30.2653 0 0 30.2653 1449.3188 16313.291)">
			<stop  offset="0" style="stop-color:#9ACE81"/>
			<stop  offset="0.1767" style="stop-color:#86C173"/>
			<stop  offset="0.735" style="stop-color:#42A351"/>
			<stop  offset="1" style="stop-color:#099A49"/>
		</linearGradient>
		<rect x="0.005" y="5.681" clip-path="url(#SVGID_12_)" fill="url(#SVGID_13_)" width="59.435" height="36.937"/>
	</g>
</g>
<g>
	<g>
		<defs>
			<rect id="SVGID_14_" x="0.005" width="73.158" height="49.308"/>
		</defs>
		<clipPath id="SVGID_15_">
			<use xlink:href="#SVGID_14_"  overflow="visible"/>
		</clipPath>
		<path clip-path="url(#SVGID_15_)" fill="none" stroke="#2A2F34" stroke-width="0.544" d="M71.902,9.24h1.261 M5.765,48.775h1.261"
			/>
	</g>
</g>
<polygon fill="none" stroke="#291D14" stroke-width="0.407" points="66.512,4.478 66.512,10.277 70.021,9.424 70.021,3.626 "/>
<g enable-background="new    ">
	<path fill="#FFFFFF" d="M26.072,29.147l-1.197,0.299l-4.337-4.322l1.269,5.088l-1.196,0.298l-1.788-7.172l1.196-0.298l4.352,4.34
		l-1.274-5.108l1.188-0.296L26.072,29.147z"/>
	<path fill="#FFFFFF" d="M30.712,24.591l-2.828,0.705l0.551,2.207l3.306-0.824l0.248,0.994l-4.502,1.123l-1.788-7.172l4.469-1.114
		l0.25,1.006l-3.272,0.816l0.494,1.979l2.827-0.705L30.712,24.591z"/>
	<path fill="#FFFFFF" d="M37.92,24.311l-0.287-5.664l1.188-0.296l0.199,7.569l-1.145,0.285l-2.615-4.91l-0.034,5.57l-1.148,0.286
		l-3.377-6.776l1.187-0.296l2.413,5.122l-0.029-5.716l1.002-0.25L37.92,24.311z"/>
</g>
</svg>
