<?xml version="1.0" encoding="utf-8"?>
<!-- Generator: Adobe Illustrator 16.0.0, SVG Export Plug-In . SVG Version: 6.00 Build 0)  -->
<!DOCTYPE svg PUBLIC "-//W3C//DTD SVG 1.0//EN" "http://www.w3.org/TR/2001/REC-SVG-20010904/DTD/svg10.dtd">
<svg version="1.0" id="Layer_1" xmlns="http://www.w3.org/2000/svg" xmlns:xlink="http://www.w3.org/1999/xlink" x="0px" y="0px"
	 width="82.053px" height="51.297px" viewBox="0 0 82.053 51.297" enable-background="new 0 0 82.053 51.297" xml:space="preserve">
<text transform="matrix(0.9703 -0.2419 0.2419 0.9703 6.2668 36.3418)" fill="#FFFFFF" font-family="'Roboto-Black'" font-size="10.397">TRENDING</text>
<path fill="none" stroke="#291D14" stroke-width="0.407" d="M71.17,16.612V0.516L3.159,17.09 M13.429,46.825v-6.779l-8.725,2.119
	v6.778L13.429,46.825z"/>
<g>
	<g>
		<g>
			<defs>
				<polygon id="SVGID_1_" points="0.171,22.32 0.171,45.061 68.185,27.689 68.185,4.951 				"/>
			</defs>
			<clipPath id="SVGID_2_">
				<use xlink:href="#SVGID_1_"  overflow="visible"/>
			</clipPath>
			
				<linearGradient id="SVGID_3_" gradientUnits="userSpaceOnUse" x1="-293.4827" y1="233.623" x2="-291.4978" y2="233.623" gradientTransform="matrix(34.2653 0 0 -34.2653 10056.4619 8030.21)">
				<stop  offset="0" style="stop-color:#005486"/>
				<stop  offset="0.6828" style="stop-color:#00A9BD"/>
				<stop  offset="1" style="stop-color:#00A9BD"/>
			</linearGradient>
			<rect x="0.171" y="4.951" clip-path="url(#SVGID_2_)" fill="url(#SVGID_3_)" width="68.014" height="40.109"/>
		</g>
	</g>
</g>
<g>
	<g>
		<g>
			<defs>
				<rect id="SVGID_4_" x="0.171" width="81.881" height="51.823"/>
			</defs>
			<clipPath id="SVGID_5_">
				<use xlink:href="#SVGID_4_"  overflow="visible"/>
			</clipPath>
			<path clip-path="url(#SVGID_5_)" fill="none" stroke="#2A2F34" stroke-width="0.544" d="M80.779,9.341h1.273 M5.993,51.038h1.273
				"/>
		</g>
	</g>
</g>
<polygon fill="none" stroke="#291D14" stroke-width="0.407" points="75.33,4.528 75.33,10.389 78.876,9.526 78.876,3.668 "/>
<g enable-background="new    ">
	<path fill="#FFFFFF" d="M6.014,36.157l-1.807-7.249l2.385-0.595c0.376-0.093,0.723-0.139,1.043-0.135
		c0.318,0.003,0.601,0.059,0.848,0.166c0.247,0.107,0.456,0.272,0.627,0.491c0.171,0.22,0.299,0.499,0.384,0.837
		c0.083,0.332,0.071,0.653-0.034,0.961c-0.106,0.309-0.307,0.577-0.602,0.806c0.215,0.007,0.41,0.046,0.585,0.115
		c0.175,0.072,0.329,0.168,0.462,0.289c0.134,0.124,0.247,0.266,0.338,0.43c0.092,0.165,0.16,0.341,0.208,0.53
		c0.087,0.349,0.109,0.668,0.064,0.959c-0.044,0.292-0.148,0.552-0.313,0.781c-0.165,0.23-0.384,0.428-0.66,0.591
		c-0.275,0.164-0.602,0.293-0.977,0.387L6.014,36.157z M6.177,31.659l1.185-0.296c0.376-0.094,0.648-0.256,0.815-0.485
		c0.167-0.231,0.21-0.509,0.129-0.834c-0.089-0.359-0.252-0.593-0.487-0.703c-0.236-0.11-0.561-0.114-0.975-0.012l-1.176,0.294
		L6.177,31.659z M6.407,32.585l0.565,2.266l1.343-0.335c0.197-0.05,0.365-0.119,0.504-0.21c0.138-0.091,0.245-0.198,0.323-0.321
		c0.077-0.124,0.125-0.259,0.142-0.408c0.017-0.148,0.005-0.307-0.037-0.473c-0.089-0.358-0.25-0.618-0.483-0.777
		c-0.233-0.161-0.553-0.191-0.961-0.09L6.407,32.585z"/>
	<path fill="#FFFFFF" d="M15.45,30.368l-2.858,0.712l0.556,2.23l3.341-0.833l0.251,1.006l-4.55,1.135l-1.808-7.249l4.517-1.126
		l0.253,1.016l-3.307,0.824l0.499,2.001l2.858-0.712L15.45,30.368z"/>
	<path fill="#FFFFFF" d="M20.896,30.465c-0.037-0.146-0.09-0.271-0.16-0.376c-0.07-0.104-0.172-0.19-0.306-0.259
		c-0.134-0.069-0.309-0.124-0.523-0.163c-0.215-0.04-0.485-0.07-0.812-0.092c-0.357-0.02-0.692-0.061-1.006-0.125
		c-0.313-0.063-0.594-0.156-0.84-0.282c-0.246-0.125-0.455-0.289-0.626-0.488c-0.172-0.2-0.296-0.448-0.369-0.743
		c-0.073-0.293-0.079-0.576-0.021-0.853c0.059-0.275,0.173-0.529,0.346-0.763c0.171-0.232,0.396-0.437,0.674-0.612
		c0.278-0.176,0.6-0.308,0.966-0.4c0.392-0.098,0.759-0.126,1.101-0.087c0.341,0.041,0.646,0.135,0.911,0.283
		c0.266,0.149,0.489,0.344,0.67,0.582c0.182,0.239,0.31,0.508,0.385,0.811l-1.204,0.301c-0.044-0.177-0.111-0.331-0.2-0.466
		c-0.089-0.136-0.201-0.243-0.337-0.323c-0.135-0.082-0.293-0.131-0.474-0.148c-0.181-0.019-0.384,0-0.61,0.057
		c-0.213,0.053-0.392,0.124-0.536,0.212c-0.143,0.09-0.256,0.19-0.337,0.308c-0.081,0.114-0.131,0.238-0.15,0.375
		c-0.019,0.136-0.01,0.274,0.026,0.416c0.067,0.27,0.245,0.464,0.533,0.582c0.289,0.117,0.702,0.19,1.24,0.219
		c0.422,0.022,0.794,0.07,1.117,0.145c0.323,0.075,0.603,0.181,0.838,0.316c0.236,0.139,0.428,0.311,0.579,0.519
		c0.149,0.207,0.26,0.455,0.332,0.744c0.076,0.306,0.086,0.594,0.031,0.868c-0.056,0.271-0.169,0.521-0.342,0.746
		c-0.172,0.224-0.4,0.42-0.684,0.588c-0.283,0.167-0.612,0.298-0.988,0.392c-0.335,0.084-0.677,0.118-1.025,0.104
		c-0.349-0.013-0.675-0.084-0.981-0.211c-0.305-0.126-0.572-0.312-0.801-0.558c-0.229-0.247-0.391-0.563-0.487-0.948l1.209-0.301
		c0.057,0.229,0.145,0.416,0.264,0.562c0.119,0.145,0.259,0.253,0.421,0.322c0.161,0.072,0.341,0.108,0.538,0.11
		s0.401-0.023,0.615-0.077c0.42-0.104,0.715-0.271,0.882-0.503C20.92,31.019,20.968,30.757,20.896,30.465z"/>
	<path fill="#FFFFFF" d="M27.105,24.279l-2.17,0.541l1.554,6.233l-1.2,0.299l-1.554-6.233l-2.151,0.536l-0.253-1.016l5.521-1.376
		L27.105,24.279z"/>
</g>
<g enable-background="new    ">
	<path fill="#FFFFFF" d="M35.048,26.936c-0.036-0.146-0.09-0.271-0.16-0.375c-0.071-0.104-0.172-0.191-0.306-0.26
		c-0.134-0.069-0.309-0.123-0.523-0.163c-0.215-0.04-0.485-0.07-0.812-0.091c-0.356-0.02-0.692-0.061-1.006-0.125
		c-0.313-0.063-0.594-0.157-0.839-0.282c-0.246-0.125-0.456-0.289-0.626-0.489c-0.172-0.2-0.295-0.448-0.369-0.743
		c-0.073-0.293-0.079-0.575-0.021-0.852c0.059-0.275,0.174-0.529,0.346-0.762c0.172-0.233,0.396-0.438,0.675-0.612
		c0.277-0.175,0.6-0.309,0.966-0.4c0.392-0.098,0.758-0.126,1.1-0.086c0.342,0.041,0.646,0.135,0.911,0.282
		c0.266,0.149,0.489,0.344,0.67,0.582c0.182,0.239,0.31,0.509,0.385,0.812l-1.204,0.3c-0.044-0.177-0.111-0.332-0.2-0.466
		c-0.089-0.135-0.201-0.243-0.337-0.324c-0.135-0.081-0.293-0.13-0.474-0.148c-0.18-0.018-0.384,0-0.61,0.057
		c-0.213,0.053-0.392,0.125-0.536,0.212c-0.143,0.09-0.256,0.19-0.337,0.307c-0.081,0.115-0.131,0.24-0.15,0.375
		c-0.019,0.135-0.01,0.274,0.026,0.416c0.067,0.27,0.244,0.464,0.533,0.582c0.289,0.118,0.702,0.191,1.24,0.219
		c0.421,0.022,0.793,0.071,1.117,0.145c0.323,0.075,0.603,0.181,0.838,0.317c0.236,0.138,0.428,0.311,0.579,0.518
		c0.149,0.208,0.26,0.456,0.332,0.745c0.077,0.306,0.087,0.593,0.031,0.867c-0.056,0.272-0.169,0.521-0.342,0.746
		c-0.172,0.225-0.4,0.42-0.684,0.588c-0.283,0.167-0.612,0.299-0.988,0.392c-0.335,0.084-0.677,0.118-1.025,0.104
		c-0.348-0.013-0.675-0.084-0.981-0.211c-0.305-0.126-0.572-0.312-0.801-0.558c-0.229-0.246-0.392-0.562-0.487-0.947l1.209-0.302
		c0.057,0.229,0.145,0.416,0.264,0.562c0.119,0.145,0.259,0.253,0.42,0.323c0.162,0.071,0.341,0.107,0.538,0.109
		c0.196,0.003,0.401-0.023,0.615-0.077c0.42-0.104,0.715-0.271,0.882-0.503C35.073,27.489,35.121,27.228,35.048,26.936z"/>
</g>
<g enable-background="new    ">
	<path fill="#FFFFFF" d="M41.157,23.959l-2.858,0.712l0.556,2.231l3.341-0.833l0.251,1.006l-4.551,1.134l-1.807-7.249l4.517-1.126
		l0.253,1.016l-3.308,0.825l0.499,2.001l2.858-0.712L41.157,23.959z"/>
	<path fill="#FFFFFF" d="M44.389,25.522l3.159-0.788l0.251,1.006l-4.368,1.089l-1.807-7.25l1.209-0.301L44.389,25.522z"/>
	<path fill="#FFFFFF" d="M49.685,24.202l3.159-0.788l0.251,1.006l-4.368,1.089l-1.808-7.249l1.209-0.302L49.685,24.202z"/>
	<path fill="#FFFFFF" d="M57.283,19.939l-2.858,0.712l0.556,2.23l3.341-0.833l0.251,1.006l-4.55,1.134l-1.808-7.249l4.517-1.126
		l0.253,1.016l-3.308,0.824l0.499,2.001l2.858-0.712L57.283,19.939z"/>
	<path fill="#FFFFFF" d="M61.417,19.378l-1.348,0.336l0.696,2.794l-1.209,0.301l-1.808-7.249l2.447-0.61
		c0.398-0.099,0.765-0.141,1.102-0.124c0.336,0.018,0.634,0.091,0.895,0.221c0.262,0.132,0.481,0.318,0.661,0.563
		c0.18,0.244,0.313,0.545,0.402,0.904c0.121,0.484,0.11,0.917-0.033,1.301c-0.143,0.384-0.394,0.713-0.751,0.988l2.316,2.634
		l0.017,0.064l-1.296,0.323L61.417,19.378z M59.818,18.705l1.242-0.31c0.217-0.054,0.399-0.132,0.547-0.232s0.262-0.217,0.344-0.349
		c0.082-0.133,0.132-0.281,0.15-0.441c0.018-0.159,0.004-0.327-0.04-0.501c-0.046-0.187-0.114-0.348-0.202-0.488
		c-0.089-0.138-0.199-0.248-0.331-0.328c-0.132-0.083-0.288-0.132-0.466-0.149c-0.179-0.017-0.383,0.003-0.612,0.06l-1.238,0.309
		L59.818,18.705z"/>
</g>
</svg>
