<?xml version="1.0" encoding="utf-8"?>
<!-- Generator: Adobe Illustrator 16.0.0, SVG Export Plug-In . SVG Version: 6.00 Build 0)  -->
<!DOCTYPE svg PUBLIC "-//W3C//DTD SVG 1.0//EN" "http://www.w3.org/TR/2001/REC-SVG-20010904/DTD/svg10.dtd">
<svg version="1.0" id="Layer_1" xmlns="http://www.w3.org/2000/svg" xmlns:xlink="http://www.w3.org/1999/xlink" x="0px" y="0px"
	 width="73.157px" height="49px" viewBox="0 0 73.157 49" enable-background="new 0 0 73.157 49" xml:space="preserve">
<path fill="none" stroke="#291D14" stroke-width="0.407" d="M62.396,16.433V0.508L2.96,14.943 M13.122,44.361v-6.704L4.491,39.75
	v6.707L13.122,44.361z"/>
<g>
	<g>
		<defs>
			<polygon id="SVGID_1_" points="0.005,20.116 0.005,42.616 59.44,28.182 59.44,5.68 			"/>
		</defs>
		<clipPath id="SVGID_2_">
			<use xlink:href="#SVGID_1_"  overflow="visible"/>
		</clipPath>
		
			<linearGradient id="SVGID_3_" gradientUnits="userSpaceOnUse" x1="-47.8872" y1="-538.2124" x2="-45.9233" y2="-538.2124" gradientTransform="matrix(30.2653 0 0 30.2653 1449.3188 16313.291)">
			<stop  offset="0" style="stop-color:#833594"/>
			<stop  offset="0.1035" style="stop-color:#92338C"/>
			<stop  offset="0.4056" style="stop-color:#B92C7A"/>
			<stop  offset="0.6666" style="stop-color:#D4266D"/>
			<stop  offset="0.8733" style="stop-color:#E52265"/>
			<stop  offset="1" style="stop-color:#EE1F61"/>
		</linearGradient>
		<rect x="0.005" y="5.68" clip-path="url(#SVGID_2_)" fill="url(#SVGID_3_)" width="59.436" height="36.936"/>
	</g>
</g>
<g>
	<g>
		<defs>
			<rect id="SVGID_4_" x="0.005" width="73.156" height="49.308"/>
		</defs>
		<clipPath id="SVGID_5_">
			<use xlink:href="#SVGID_4_"  overflow="visible"/>
		</clipPath>
		<path clip-path="url(#SVGID_5_)" fill="none" stroke="#2A2F34" stroke-width="0.544" d="M71.901,9.238h1.26 M5.765,48.775h1.262"
			/>
	</g>
</g>
<polygon fill="none" stroke="#291D14" stroke-width="0.407" points="66.511,4.478 66.511,10.278 70.021,9.422 70.021,3.626 "/>
<text transform="matrix(0.9703 -0.2419 0.2419 0.9703 6.2656 34.0435)" fill="#FFFFFF" font-family="'Roboto-Black'" font-size="10.397">TRENDING</text>
<path fill="none" stroke="#291D14" stroke-width="0.407" d="M62.396,16.434V0.508L2.961,14.943 M13.122,44.362v-6.707L4.491,39.75
	v6.709L13.122,44.362z"/>
<g>
	<g>
		<defs>
			<polygon id="SVGID_6_" points="0.005,20.118 0.005,42.618 59.44,28.182 59.44,5.681 			"/>
		</defs>
		<clipPath id="SVGID_7_">
			<use xlink:href="#SVGID_6_"  overflow="visible"/>
		</clipPath>
		
			<linearGradient id="SVGID_8_" gradientUnits="userSpaceOnUse" x1="-47.8872" y1="-538.2124" x2="-45.9238" y2="-538.2124" gradientTransform="matrix(30.2653 0 0 30.2653 1449.3188 16313.291)">
			<stop  offset="0" style="stop-color:#F8951D"/>
			<stop  offset="1" style="stop-color:#FFD500"/>
		</linearGradient>
		<rect x="0.005" y="5.681" clip-path="url(#SVGID_7_)" fill="url(#SVGID_8_)" width="59.435" height="36.937"/>
	</g>
</g>
<g>
	<g>
		<defs>
			<rect id="SVGID_9_" x="0.005" width="73.158" height="49.308"/>
		</defs>
		<clipPath id="SVGID_10_">
			<use xlink:href="#SVGID_9_"  overflow="visible"/>
		</clipPath>
		<path clip-path="url(#SVGID_10_)" fill="none" stroke="#2A2F34" stroke-width="0.544" d="M71.902,9.24h1.261 M5.765,48.775h1.261"
			/>
	</g>
</g>
<polygon fill="none" stroke="#291D14" stroke-width="0.407" points="66.512,4.478 66.512,10.277 70.021,9.424 70.021,3.626 "/>
<text transform="matrix(0.9315 -0.2322 0.2419 0.9703 8.085 33.6333)" font-family="'Roboto-Medium'" font-size="10.3968">PREMIUM</text>
<path fill="none" stroke="#291D14" stroke-width="0.407" d="M62.395,16.434V0.508L2.961,14.943 M13.122,44.362v-6.707L4.491,39.75
	v6.709L13.122,44.362z"/>
<g>
	<g>
		
			<linearGradient id="SVGID_12_" gradientUnits="userSpaceOnUse" x1="246.0044" y1="-230.1484" x2="305.4399" y2="-230.1484" gradientTransform="matrix(1 0 0 -1 -246 -205.999)">
			<stop  offset="0" style="stop-color:#8A3287"/>
			<stop  offset="0.1618" style="stop-color:#793075"/>
			<stop  offset="0.7417" style="stop-color:#3F1F3A"/>
			<stop  offset="1" style="stop-color:#281223"/>
		</linearGradient>
		<polygon id="SVGID_11_" fill="url(#SVGID_12_)" points="0.005,20.118 0.005,42.618 59.44,28.182 59.44,5.681 		"/>
	</g>
	<g>
		<defs>
			<polygon id="SVGID_13_" points="0.005,20.118 0.005,42.618 59.44,28.182 59.44,5.681 			"/>
		</defs>
		<clipPath id="SVGID_14_">
			<use xlink:href="#SVGID_13_"  overflow="visible"/>
		</clipPath>
		
			<linearGradient id="SVGID_15_" gradientUnits="userSpaceOnUse" x1="-47.8872" y1="-538.2124" x2="-45.9238" y2="-538.2124" gradientTransform="matrix(30.2653 0 0 30.2653 1449.3188 16313.291)">
			<stop  offset="0" style="stop-color:#8A3287"/>
			<stop  offset="0.1618" style="stop-color:#793075"/>
			<stop  offset="0.7417" style="stop-color:#3F1F3A"/>
			<stop  offset="1" style="stop-color:#281223"/>
		</linearGradient>
		<rect x="0.005" y="5.681" clip-path="url(#SVGID_14_)" fill="url(#SVGID_15_)" width="59.435" height="36.937"/>
	</g>
</g>
<g>
	<g>
		<defs>
			<rect id="SVGID_16_" x="0.005" width="73.158" height="49.308"/>
		</defs>
		<clipPath id="SVGID_17_">
			<use xlink:href="#SVGID_16_"  overflow="visible"/>
		</clipPath>
		<path clip-path="url(#SVGID_17_)" fill="none" stroke="#2A2F34" stroke-width="0.544" d="M71.902,9.24h1.261 M5.765,48.775h1.261"
			/>
	</g>
</g>
<polygon fill="none" stroke="#291D14" stroke-width="0.407" points="66.512,4.478 66.512,10.277 70.021,9.424 70.021,3.626 "/>
<g enable-background="new    ">
	<path fill="#FFFFFF" d="M13.873,24.201l3.356,5.002l0.611-5.992l1.546-0.386l1.788,7.172l-1.191,0.297l-0.589-2.364l-0.671-3.193
		l-0.655,6.035l-0.856,0.214l-3.405-5.016l0.905,3.127l0.59,2.364L14.11,31.76l-1.788-7.172L13.873,24.201z"/>
	<path fill="#FFFFFF" d="M27.236,24.877c0.136,0.545,0.189,1.051,0.16,1.518c-0.03,0.465-0.132,0.879-0.306,1.242
		c-0.174,0.362-0.417,0.668-0.727,0.916c-0.31,0.248-0.677,0.425-1.103,0.531c-0.422,0.105-0.829,0.121-1.219,0.047
		c-0.39-0.074-0.75-0.229-1.078-0.467c-0.329-0.236-0.617-0.555-0.865-0.949c-0.248-0.398-0.44-0.869-0.576-1.414l-0.091-0.365
		c-0.136-0.545-0.187-1.05-0.155-1.52c0.032-0.468,0.137-0.884,0.312-1.249c0.175-0.365,0.418-0.671,0.728-0.92
		c0.31-0.248,0.676-0.425,1.099-0.53c0.425-0.106,0.834-0.122,1.226-0.049c0.392,0.074,0.75,0.23,1.077,0.47
		c0.326,0.239,0.611,0.559,0.856,0.958c0.246,0.4,0.436,0.872,0.572,1.417L27.236,24.877z M25.947,24.801
		c-0.1-0.4-0.225-0.745-0.375-1.033c-0.151-0.289-0.323-0.519-0.517-0.69s-0.406-0.286-0.64-0.339
		c-0.233-0.056-0.48-0.05-0.742,0.015c-0.255,0.064-0.473,0.174-0.651,0.333c-0.178,0.156-0.313,0.357-0.405,0.6
		c-0.092,0.243-0.138,0.527-0.139,0.854c-0.001,0.326,0.048,0.689,0.148,1.089l0.093,0.375c0.1,0.4,0.227,0.745,0.381,1.034
		c0.154,0.291,0.33,0.521,0.527,0.693c0.197,0.172,0.412,0.287,0.645,0.342c0.233,0.055,0.478,0.051,0.733-0.014
		c0.53-0.131,0.885-0.443,1.065-0.936c0.181-0.49,0.17-1.141-0.031-1.947L25.947,24.801z"/>
	<path fill="#FFFFFF" d="M34.738,26.618l-1.197,0.297l-4.338-4.322l1.269,5.087l-1.196,0.299l-1.788-7.172l1.196-0.298l4.353,4.341
		l-1.273-5.108l1.188-0.296L34.738,26.618z"/>
	<path fill="#FFFFFF" d="M39.377,22.06l-2.829,0.705l0.551,2.206l3.305-0.824l0.248,0.996l-4.501,1.121l-1.788-7.171l4.469-1.114
		l0.25,1.005l-3.273,0.816l0.494,1.979l2.828-0.705L39.377,22.06z"/>
	<path fill="#FFFFFF" d="M42.933,20.566l0.737-3.793l1.324-0.33l-1.178,5.107l0.658,2.64l-1.201,0.3l-0.658-2.64l-3.443-3.956
		l1.33-0.331L42.933,20.566z"/>
</g>
</svg>
