<?xml version="1.0" encoding="utf-8"?>
<!-- Generator: Adobe Illustrator 16.0.0, SVG Export Plug-In . SVG Version: 6.00 Build 0)  -->
<!DOCTYPE svg PUBLIC "-//W3C//DTD SVG 1.0//EN" "http://www.w3.org/TR/2001/REC-SVG-20010904/DTD/svg10.dtd">
<svg version="1.0" id="Layer_1" xmlns="http://www.w3.org/2000/svg" xmlns:xlink="http://www.w3.org/1999/xlink" x="0px" y="0px"
	 width="73.157px" height="49px" viewBox="0 0 73.157 49" enable-background="new 0 0 73.157 49" xml:space="preserve">
<path fill="none" stroke="#291D14" stroke-width="0.407" d="M62.396,16.433V0.508L2.96,14.943 M13.122,44.361v-6.704L4.491,39.75
	v6.707L13.122,44.361z"/>
<g>
	<g>
		<defs>
			<polygon id="SVGID_1_" points="0.005,20.116 0.005,42.616 59.44,28.182 59.44,5.68 			"/>
		</defs>
		<clipPath id="SVGID_2_">
			<use xlink:href="#SVGID_1_"  overflow="visible"/>
		</clipPath>
		
			<linearGradient id="SVGID_3_" gradientUnits="userSpaceOnUse" x1="-47.8872" y1="-538.2124" x2="-45.9233" y2="-538.2124" gradientTransform="matrix(30.2653 0 0 30.2653 1449.3188 16313.291)">
			<stop  offset="0" style="stop-color:#833594"/>
			<stop  offset="0.1035" style="stop-color:#92338C"/>
			<stop  offset="0.4056" style="stop-color:#B92C7A"/>
			<stop  offset="0.6666" style="stop-color:#D4266D"/>
			<stop  offset="0.8733" style="stop-color:#E52265"/>
			<stop  offset="1" style="stop-color:#EE1F61"/>
		</linearGradient>
		<rect x="0.005" y="5.68" clip-path="url(#SVGID_2_)" fill="url(#SVGID_3_)" width="59.436" height="36.936"/>
	</g>
</g>
<g>
	<g>
		<defs>
			<rect id="SVGID_4_" x="0.005" width="73.156" height="49.308"/>
		</defs>
		<clipPath id="SVGID_5_">
			<use xlink:href="#SVGID_4_"  overflow="visible"/>
		</clipPath>
		<path clip-path="url(#SVGID_5_)" fill="none" stroke="#2A2F34" stroke-width="0.544" d="M71.901,9.238h1.26 M5.765,48.775h1.262"
			/>
	</g>
</g>
<polygon fill="none" stroke="#291D14" stroke-width="0.407" points="66.511,4.478 66.511,10.278 70.021,9.422 70.021,3.626 "/>
<text transform="matrix(0.9703 -0.2419 0.2419 0.9703 6.2656 34.0435)" fill="#FFFFFF" font-family="'Roboto-Black'" font-size="10.397">TRENDING</text>
<path fill="none" stroke="#291D14" stroke-width="0.407" d="M62.396,16.434V0.508L2.961,14.943 M13.122,44.362v-6.707L4.491,39.75
	v6.709L13.122,44.362z"/>
<g>
	<g>
		<defs>
			<polygon id="SVGID_6_" points="0.005,20.118 0.005,42.618 59.44,28.182 59.44,5.681 			"/>
		</defs>
		<clipPath id="SVGID_7_">
			<use xlink:href="#SVGID_6_"  overflow="visible"/>
		</clipPath>
		
			<linearGradient id="SVGID_8_" gradientUnits="userSpaceOnUse" x1="-47.8872" y1="-538.2124" x2="-45.9238" y2="-538.2124" gradientTransform="matrix(30.2653 0 0 30.2653 1449.3188 16313.291)">
			<stop  offset="0" style="stop-color:#F8951D"/>
			<stop  offset="1" style="stop-color:#FFD500"/>
		</linearGradient>
		<rect x="0.005" y="5.681" clip-path="url(#SVGID_7_)" fill="url(#SVGID_8_)" width="59.435" height="36.937"/>
	</g>
</g>
<g>
	<g>
		<defs>
			<rect id="SVGID_9_" x="0.005" width="73.158" height="49.308"/>
		</defs>
		<clipPath id="SVGID_10_">
			<use xlink:href="#SVGID_9_"  overflow="visible"/>
		</clipPath>
		<path clip-path="url(#SVGID_10_)" fill="none" stroke="#2A2F34" stroke-width="0.544" d="M71.902,9.24h1.261 M5.765,48.775h1.261"
			/>
	</g>
</g>
<polygon fill="none" stroke="#291D14" stroke-width="0.407" points="66.512,4.478 66.512,10.277 70.021,9.424 70.021,3.626 "/>
<g enable-background="new    ">
	<path d="M9.316,30.497l0.665,2.664l-1.196,0.298l-1.788-7.172l2.634-0.657c0.4-0.1,0.77-0.131,1.108-0.096
		c0.339,0.036,0.641,0.129,0.906,0.279c0.265,0.15,0.488,0.352,0.669,0.602c0.182,0.252,0.314,0.541,0.396,0.871
		c0.086,0.348,0.108,0.674,0.064,0.977c-0.043,0.305-0.147,0.578-0.314,0.822c-0.167,0.243-0.393,0.455-0.678,0.635
		c-0.285,0.178-0.628,0.318-1.028,0.418L9.316,30.497z M9.067,29.495l1.438-0.357c0.23-0.058,0.421-0.137,0.571-0.236
		c0.151-0.102,0.267-0.219,0.347-0.354s0.126-0.283,0.138-0.444c0.012-0.161-0.004-0.331-0.049-0.51
		c-0.042-0.167-0.106-0.321-0.194-0.464c-0.087-0.143-0.2-0.26-0.336-0.354c-0.138-0.093-0.297-0.154-0.48-0.184
		s-0.39-0.015-0.62,0.043l-1.438,0.357L9.067,29.495z"/>
	<path d="M16.815,28.522l-1.333,0.332l0.689,2.764l-1.196,0.298l-1.788-7.172l2.421-0.604c0.394-0.098,0.757-0.139,1.089-0.122
		s0.627,0.089,0.886,0.219c0.258,0.129,0.477,0.315,0.654,0.556c0.177,0.242,0.31,0.54,0.399,0.894
		c0.119,0.48,0.108,0.909-0.033,1.288c-0.142,0.38-0.39,0.704-0.743,0.979l2.292,2.604l0.016,0.064l-1.282,0.318L16.815,28.522z
		 M15.232,27.854l1.23-0.307c0.214-0.055,0.395-0.13,0.541-0.229c0.146-0.1,0.259-0.215,0.341-0.346
		c0.081-0.133,0.13-0.277,0.147-0.436c0.018-0.158,0.004-0.324-0.039-0.498c-0.046-0.184-0.112-0.344-0.2-0.48
		c-0.088-0.137-0.197-0.246-0.328-0.328c-0.131-0.08-0.284-0.129-0.461-0.145c-0.177-0.018-0.378,0.002-0.605,0.059l-1.225,0.305
		L15.232,27.854z"/>
	<path d="M24.244,26.204l-2.828,0.705l0.55,2.207l3.306-0.824l0.248,0.994l-4.502,1.123l-1.788-7.172l4.469-1.114l0.25,1.005
		l-3.272,0.815l0.494,1.979l2.828-0.705L24.244,26.204z"/>
	<path d="M26.258,21.485l3.356,5.003l0.611-5.992l1.546-0.385l1.788,7.171l-1.191,0.297l-0.589-2.363l-0.671-3.193l-0.655,6.035
		l-0.856,0.213l-3.405-5.016l0.905,3.127l0.589,2.365l-1.191,0.297l-1.788-7.172L26.258,21.485z"/>
	<path d="M36.236,26.615l-1.191,0.298l-1.788-7.172l1.191-0.297L36.236,26.615z"/>
	<path d="M40.955,17.821l1.196,4.798c0.102,0.411,0.125,0.786,0.068,1.129c-0.057,0.342-0.176,0.646-0.359,0.911
		c-0.181,0.264-0.414,0.487-0.701,0.668c-0.286,0.182-0.607,0.316-0.963,0.406c-0.369,0.092-0.724,0.125-1.063,0.1
		c-0.339-0.025-0.649-0.113-0.931-0.262c-0.283-0.149-0.525-0.362-0.732-0.639c-0.207-0.277-0.361-0.62-0.463-1.031l-1.196-4.798
		l1.191-0.297l1.196,4.798c0.064,0.257,0.15,0.47,0.262,0.639c0.111,0.168,0.241,0.299,0.393,0.391
		c0.148,0.092,0.316,0.145,0.502,0.16c0.184,0.016,0.383-0.004,0.594-0.057s0.395-0.128,0.553-0.229
		c0.157-0.101,0.279-0.226,0.367-0.377c0.088-0.152,0.141-0.328,0.16-0.528c0.018-0.202-0.004-0.431-0.068-0.688l-1.196-4.798
		L40.955,17.821z"/>
	<path d="M43.783,17.116l3.356,5.003l0.611-5.992l1.546-0.385l1.788,7.172l-1.191,0.297l-0.59-2.364l-0.67-3.192l-0.656,6.034
		l-0.855,0.213l-3.404-5.016l0.904,3.127l0.59,2.364l-1.191,0.297l-1.789-7.172L43.783,17.116z"/>
</g>
</svg>
