<?xml version="1.0" encoding="utf-8"?>
<!-- Generator: Adobe Illustrator 16.0.0, SVG Export Plug-In . SVG Version: 6.00 Build 0)  -->
<!DOCTYPE svg PUBLIC "-//W3C//DTD SVG 1.1//EN" "http://www.w3.org/Graphics/SVG/1.1/DTD/svg11.dtd">
<svg version="1.1" id="Layer_1" xmlns="http://www.w3.org/2000/svg" xmlns:xlink="http://www.w3.org/1999/xlink" x="0px" y="0px"
	 width="100px" height="50px" viewBox="0 0 100 50" enable-background="new 0 0 100 50" xml:space="preserve">
<rect fill="#FFFFFF" width="100" height="50"/>
<g display="none">
	<path display="inline" fill="#455CAA" d="M40.688,35.033l3.548-19.955h5.543l-3.437,19.955H40.688z M40.688,35.033"/>
	<path display="inline" fill="#293987" d="M40.688,35.033l4.545-19.955h4.545l-3.437,19.955H40.688z M40.688,35.033"/>
	<path display="inline" fill="#455CAA" d="M66.407,15.3c-1.107-0.444-2.882-0.887-5.101-0.887c-5.542,0-9.532,2.771-9.532,6.763
		c0,2.994,2.771,4.545,4.988,5.542c2.217,0.999,2.883,1.664,2.883,2.551c0,1.33-1.774,1.995-3.327,1.995
		c-2.217,0-3.436-0.332-5.32-1.108l-0.776-0.332l-0.776,4.545c1.33,0.555,3.77,1.108,6.319,1.108c5.876,0,9.756-2.771,9.756-6.983
		c0-2.329-1.441-4.102-4.768-5.544c-1.995-0.998-3.214-1.552-3.214-2.55c0-0.887,0.997-1.773,3.214-1.773
		c1.885,0,3.216,0.332,4.213,0.776l0.555,0.222L66.407,15.3z M66.407,15.3"/>
	<path display="inline" fill="#293987" d="M66.407,15.3c-1.107-0.444-2.882-0.887-5.101-0.887c-5.542,0-8.535,2.771-8.535,6.763
		c0,2.994,1.773,4.545,3.991,5.542c2.217,0.999,2.883,1.664,2.883,2.551c0,1.33-1.774,1.995-3.327,1.995
		c-2.217,0-3.436-0.332-5.32-1.108l-0.776-0.332l-0.776,4.545c1.33,0.555,3.77,1.108,6.319,1.108c5.876,0,9.756-2.771,9.756-6.983
		c0-2.329-1.441-4.102-4.768-5.544c-1.995-0.998-3.214-1.552-3.214-2.55c0-0.887,0.997-1.773,3.214-1.773
		c1.885,0,3.216,0.332,4.213,0.776l0.555,0.222L66.407,15.3z M66.407,15.3"/>
	<path display="inline" fill="#455CAA" d="M75.941,15.079c-1.33,0-2.327,0.111-2.883,1.441l-8.314,18.514h5.986l1.109-3.325h7.095
		l0.665,3.325h5.321l-4.655-19.955H75.941z M73.392,28.382c0.333-0.998,2.218-5.876,2.218-5.876s0.442-1.219,0.775-1.996
		l0.332,1.885c0,0,1.109,4.989,1.331,6.098h-4.656V28.382z M73.392,28.382"/>
	<path display="inline" fill="#293987" d="M77.271,15.079c-1.33,0-2.327,0.111-2.882,1.441l-9.646,18.514h5.986l1.109-3.325h7.095
		l0.665,3.325h5.321l-4.655-19.955H77.271z M73.392,28.382c0.443-1.109,2.218-5.876,2.218-5.876s0.442-1.219,0.775-1.996
		l0.332,1.885c0,0,1.109,4.989,1.331,6.098h-4.656V28.382z M73.392,28.382"/>
	<path display="inline" fill="#455CAA" d="M30.489,29.047l-0.554-2.883c-0.998-3.326-4.213-6.983-7.76-8.757l4.989,17.738h5.986
		l8.979-19.955h-5.986L30.489,29.047z M30.489,29.047"/>
	<path display="inline" fill="#293987" d="M30.489,29.047l-0.554-2.883c-0.998-3.326-4.213-6.983-7.76-8.757l4.989,17.738h5.986
		l8.979-19.955h-4.878L30.489,29.047z M30.489,29.047"/>
	<path display="inline" fill="#FEBC11" d="M15.079,15.079l0.998,0.222c7.094,1.663,11.973,5.875,13.857,10.864l-1.996-9.423
		c-0.332-1.33-1.331-1.663-2.549-1.663H15.079z M15.079,15.079"/>
	<path display="inline" fill="#F79820" d="M15.079,15.079c7.095,1.663,12.971,5.986,14.855,10.975l-1.885-7.871
		c-0.333-1.332-1.442-2.106-2.661-2.106L15.079,15.079z M15.079,15.079"/>
	<path display="inline" fill="#EC7D23" d="M15.079,15.079c7.095,1.663,12.971,5.986,14.855,10.975l-1.331-4.324
		c-0.333-1.33-0.775-2.661-2.328-3.214L15.079,15.079z M15.079,15.079"/>
	<path display="inline" fill="#141744" d="M36.032,28.382l-3.77-3.77l-1.773,4.213l-0.444-2.771
		c-0.997-3.326-4.212-6.985-7.759-8.758l4.988,17.737h5.987L36.032,28.382z M36.032,28.382"/>
	<path display="inline" fill="#141744" d="M46.341,35.033l-4.766-4.878l-0.888,4.878H46.341z M46.341,35.033"/>
	<path display="inline" fill="#141744" d="M59.091,28.16c0.443,0.443,0.665,0.776,0.555,1.219c0,1.33-1.774,1.996-3.327,1.996
		c-2.217,0-3.436-0.333-5.32-1.109l-0.776-0.332l-0.776,4.546c1.33,0.554,3.77,1.107,6.319,1.107c3.548,0,6.431-0.997,8.093-2.771
		L59.091,28.16z M59.091,28.16"/>
	<path display="inline" fill="#141744" d="M65.521,35.033h5.21l1.109-3.325h7.095l0.665,3.325h5.321l-1.885-8.093l-6.651-6.43
		l0.332,1.774c0,0,1.109,4.988,1.331,6.097h-4.656c0.443-1.109,2.218-5.876,2.218-5.876s0.442-1.219,0.775-1.996"/>
</g>
<g display="none">
	<path display="inline" fill="#FDB515" d="M76.282,25c0,8.677-7.009,15.77-15.77,15.77c-8.677,0-15.769-7.093-15.769-15.77
		c0-8.678,7.008-15.77,15.686-15.77C69.273,9.23,76.282,16.322,76.282,25L76.282,25z M76.282,25"/>
	<path display="inline" fill="#F79820" d="M60.513,9.23c8.678,0,15.77,7.092,15.77,15.77c0,8.677-7.009,15.77-15.77,15.77
		c-8.677,0-15.769-7.093-15.769-15.77"/>
	<path display="inline" fill="#F6851F" d="M60.513,9.23c8.678,0,15.77,7.092,15.77,15.77c0,8.677-7.009,15.77-15.77,15.77"/>
	<path display="inline" fill="#F05354" d="M39.32,9.23C30.727,9.314,23.718,16.322,23.718,25c0,8.677,7.009,15.77,15.77,15.77
		c4.088,0,7.759-1.585,10.596-4.089c0.584-0.501,1.085-1.085,1.585-1.668h-3.253c-0.417-0.501-0.834-1.085-1.168-1.586h5.59
		c0.334-0.5,0.668-1.084,0.918-1.669h-7.426c-0.25-0.5-0.501-1.085-0.667-1.669h8.677c0.5-1.585,0.834-3.254,0.834-5.005
		c0-1.168-0.167-2.253-0.334-3.337h-9.678c0.083-0.584,0.25-1.085,0.417-1.669h8.677c-0.166-0.583-0.417-1.168-0.667-1.668h-7.342
		c0.25-0.583,0.584-1.084,0.917-1.668h5.59c-0.333-0.584-0.75-1.168-1.251-1.669h-3.087c0.501-0.584,1.001-1.085,1.586-1.585
		c-2.754-2.586-6.508-4.088-10.597-4.088C39.404,9.23,39.404,9.23,39.32,9.23L39.32,9.23z M39.32,9.23"/>
	<path display="inline" fill="#E42A36" d="M23.718,25c0,8.677,7.009,15.77,15.77,15.77c4.088,0,7.759-1.585,10.596-4.089
		c0.584-0.501,1.085-1.085,1.585-1.668h-3.253c-0.417-0.501-0.834-1.085-1.168-1.586h5.59c0.334-0.5,0.668-1.084,0.918-1.669h-7.426
		c-0.25-0.5-0.501-1.085-0.667-1.669h8.677c0.5-1.585,0.834-3.254,0.834-5.005c0-1.168-0.167-2.253-0.334-3.337h-9.678
		c0.083-0.584,0.25-1.085,0.417-1.669h8.677c-0.166-0.583-0.417-1.168-0.667-1.668h-7.342c0.25-0.583,0.584-1.084,0.917-1.668h5.59
		c-0.333-0.584-0.75-1.168-1.251-1.669h-3.087c0.501-0.584,1.001-1.085,1.586-1.585c-2.754-2.586-6.508-4.088-10.597-4.088H39.32"/>
	<path display="inline" fill="#CB2128" d="M39.487,40.77c4.088,0,7.759-1.585,10.596-4.089c0.584-0.501,1.085-1.085,1.585-1.668
		h-3.253c-0.417-0.501-0.834-1.085-1.168-1.586h5.59c0.334-0.5,0.668-1.084,0.918-1.669h-7.426c-0.25-0.5-0.501-1.085-0.667-1.669
		h8.677c0.5-1.585,0.834-3.254,0.834-5.005c0-1.168-0.167-2.253-0.334-3.337h-9.678c0.083-0.584,0.25-1.085,0.417-1.669h8.677
		c-0.166-0.583-0.417-1.168-0.667-1.668h-7.342c0.25-0.583,0.584-1.084,0.917-1.668h5.59c-0.333-0.584-0.75-1.168-1.251-1.669
		h-3.087c0.501-0.584,1.001-1.085,1.586-1.585c-2.754-2.586-6.508-4.088-10.597-4.088H39.32"/>
	<path display="inline" fill="#FFFFFF" d="M45.077,29.005l0.251-1.418c-0.084,0-0.251,0.083-0.418,0.083
		c-0.584,0-0.667-0.334-0.584-0.501l0.501-2.92h0.918l0.25-1.585h-0.834l0.167-1.001h-1.669c0,0-1.001,5.506-1.001,6.174
		c0,1.001,0.584,1.418,1.335,1.418C44.493,29.255,44.91,29.089,45.077,29.005L45.077,29.005z M45.077,29.005"/>
	<path display="inline" fill="#FFFFFF" d="M45.662,26.335c0,2.336,1.585,2.92,2.92,2.92c1.251,0,1.752-0.25,1.752-0.25l0.333-1.585
		c0,0-0.917,0.417-1.751,0.417c-1.836,0-1.501-1.335-1.501-1.335h3.42c0,0,0.25-1.085,0.25-1.502c0-1.085-0.584-2.42-2.42-2.42
		C46.913,22.414,45.662,24.249,45.662,26.335L45.662,26.335z M48.582,23.915c0.918,0,0.751,1.085,0.751,1.168h-1.836
		C47.497,25,47.664,23.915,48.582,23.915L48.582,23.915z M48.582,23.915"/>
	<path display="inline" fill="#FFFFFF" d="M59.178,29.005l0.334-1.836c0,0-0.834,0.418-1.418,0.418c-1.169,0-1.669-0.918-1.669-1.92
		c0-2.002,1.001-3.087,2.169-3.087c0.835,0,1.502,0.5,1.502,0.5l0.25-1.752c0,0-1.001-0.417-1.919-0.417
		c-1.919,0-3.838,1.668-3.838,4.839c0,2.086,1.002,3.504,3.004,3.504C58.26,29.255,59.178,29.005,59.178,29.005L59.178,29.005z
		 M59.178,29.005"/>
	<path display="inline" fill="#FFFFFF" d="M35.9,22.414c-1.168,0-2.003,0.333-2.003,0.333l-0.25,1.418c0,0,0.751-0.334,1.836-0.334
		c0.584,0,1.084,0.083,1.084,0.584c0,0.334-0.083,0.417-0.083,0.417h-0.751c-1.418,0-3.004,0.584-3.004,2.503
		c0,1.502,1.001,1.836,1.585,1.836c1.168,0,1.668-0.751,1.752-0.751l-0.083,0.668h1.502l0.667-4.589
		C38.152,22.497,36.484,22.414,35.9,22.414L35.9,22.414z M36.233,26.168c0,0.25-0.167,1.585-1.168,1.585
		c-0.5,0-0.667-0.417-0.667-0.667c0-0.417,0.25-1.001,1.502-1.001C36.15,26.168,36.233,26.168,36.233,26.168L36.233,26.168z
		 M36.233,26.168"/>
	<path display="inline" fill="#FFFFFF" d="M39.737,29.172c0.417,0,2.503,0.083,2.503-2.17c0-2.085-2.002-1.668-2.002-2.502
		c0-0.417,0.334-0.584,0.918-0.584c0.25,0,1.167,0.084,1.167,0.084l0.25-1.502c0,0-0.584-0.167-1.585-0.167
		c-1.252,0-2.503,0.5-2.503,2.169c0,1.918,2.085,1.751,2.085,2.502c0,0.501-0.584,0.585-1.001,0.585
		c-0.751,0-1.502-0.251-1.502-0.251l-0.25,1.502C37.902,29.005,38.319,29.172,39.737,29.172L39.737,29.172z M39.737,29.172"/>
	<path display="inline" fill="#FFFFFF" d="M73.027,21.079l-0.333,2.252c0,0-0.668-0.834-1.585-0.834
		c-1.502,0-2.837,1.835-2.837,4.005c0,1.335,0.667,2.753,2.086,2.753c1.001,0,1.585-0.667,1.585-0.667l-0.083,0.584h1.668
		l1.252-8.01L73.027,21.079z M72.277,25.5c0,0.917-0.417,2.086-1.335,2.086c-0.584,0-0.918-0.501-0.918-1.336
		c0-1.334,0.584-2.168,1.335-2.168C71.943,24.083,72.277,24.5,72.277,25.5L72.277,25.5z M72.277,25.5"/>
	<path display="inline" fill="#FFFFFF" d="M26.805,29.089l1.001-6.008l0.167,6.008h1.168l2.168-6.008l-0.917,6.008h1.752l1.335-8.01
		h-2.753l-1.669,4.922l-0.083-4.922h-2.419l-1.335,8.01H26.805z M26.805,29.089"/>
	<path display="inline" fill="#FFFFFF" d="M52.67,29.089c0.501-2.754,0.584-5.006,1.752-4.589c0.167-1.085,0.417-1.502,0.584-1.919
		h-0.333c-0.751,0-1.336,1.001-1.336,1.001l0.168-0.917h-1.586l-1.084,6.508h1.835V29.089z M52.67,29.089"/>
	<path display="inline" fill="#FFFFFF" d="M63.016,22.414c-1.168,0-2.002,0.333-2.002,0.333l-0.25,1.418
		c0,0,0.751-0.334,1.835-0.334c0.584,0,1.085,0.083,1.085,0.584c0,0.334-0.083,0.417-0.083,0.417h-0.752
		c-1.418,0-3.003,0.584-3.003,2.503c0,1.502,1.001,1.836,1.585,1.836c1.168,0,1.669-0.751,1.752-0.751L63.1,29.089h1.502
		l0.667-4.589C65.353,22.497,63.601,22.414,63.016,22.414L63.016,22.414z M63.434,26.168c0,0.25-0.167,1.585-1.169,1.585
		c-0.5,0-0.667-0.417-0.667-0.667c0-0.417,0.25-1.001,1.502-1.001C63.35,26.168,63.35,26.168,63.434,26.168L63.434,26.168z
		 M63.434,26.168"/>
	<path display="inline" fill="#FFFFFF" d="M66.688,29.089c0.5-2.754,0.583-5.006,1.752-4.589c0.167-1.085,0.417-1.502,0.584-1.919
		h-0.334c-0.751,0-1.335,1.001-1.335,1.001l0.167-0.917h-1.585l-1.085,6.508h1.836V29.089z M66.688,29.089"/>
	<path display="inline" fill="#DCE5E4" d="M42.491,27.837c0,1.001,0.584,1.418,1.335,1.418c0.584,0,1.084-0.166,1.251-0.25
		l0.251-1.418c-0.084,0-0.251,0.083-0.418,0.083c-0.584,0-0.667-0.334-0.584-0.501l0.501-2.92h0.918l0.25-1.585h-0.834l0.167-1.001"
		/>
	<path display="inline" fill="#DCE5E4" d="M46.496,26.335c0,2.336,0.751,2.92,2.086,2.92c1.251,0,1.752-0.25,1.752-0.25l0.333-1.585
		c0,0-0.917,0.417-1.751,0.417c-1.836,0-1.501-1.335-1.501-1.335h3.42c0,0,0.25-1.085,0.25-1.502c0-1.085-0.584-2.42-2.42-2.42
		C46.913,22.414,46.496,24.249,46.496,26.335L46.496,26.335z M48.582,23.915c0.918,0,1.084,1.085,1.084,1.168h-2.169
		C47.497,25,47.664,23.915,48.582,23.915L48.582,23.915z M48.582,23.915"/>
	<path display="inline" fill="#DCE5E4" d="M59.178,29.005l0.334-1.836c0,0-0.834,0.418-1.418,0.418c-1.169,0-1.669-0.918-1.669-1.92
		c0-2.002,1.001-3.087,2.169-3.087c0.835,0,1.502,0.5,1.502,0.5l0.25-1.752c0,0-1.001-0.417-1.919-0.417
		c-1.919,0-3.004,1.668-3.004,4.839c0,2.086,0.168,3.504,2.17,3.504C58.26,29.255,59.178,29.005,59.178,29.005L59.178,29.005z
		 M59.178,29.005"/>
	<path display="inline" fill="#DCE5E4" d="M33.646,24.249c0,0,0.751-0.334,1.836-0.334c0.584,0,1.084,0.084,1.084,0.584
		c0,0.333-0.083,0.417-0.083,0.417h-0.751c-1.418,0-3.004,0.584-3.004,2.503c0,1.501,1.001,1.835,1.585,1.835
		c1.168,0,1.668-0.751,1.752-0.751l-0.083,0.668h1.502l0.667-4.589c0-1.919-1.668-2.003-2.335-2.003 M37.067,26.168
		c0,0.25-1.001,1.585-2.002,1.585c-0.5,0-0.667-0.417-0.667-0.667c0-0.417,0.25-1.001,1.502-1.001
		C36.15,26.168,37.067,26.168,37.067,26.168L37.067,26.168z M37.067,26.168"/>
	<path display="inline" fill="#DCE5E4" d="M37.902,29.005c0,0,0.501,0.167,1.919,0.167c0.417,0,2.503,0.083,2.503-2.17
		c0-2.085-2.002-1.668-2.002-2.502c0-0.417,0.334-0.584,0.918-0.584c0.25,0,1.168,0.084,1.168,0.084l0.25-1.502
		c0,0-0.584-0.167-1.585-0.167c-1.252,0-1.669,0.5-1.669,2.169c0,1.918,1.251,1.751,1.251,2.502c0,0.501-0.584,0.585-1.001,0.585"/>
	<path display="inline" fill="#DCE5E4" d="M72.694,23.331c0,0-0.668-0.834-1.585-0.834c-1.502,0-2.003,1.835-2.003,4.005
		c0,1.335-0.167,2.753,1.252,2.753c1.001,0,1.585-0.667,1.585-0.667l-0.083,0.584h1.668l1.252-8.01 M72.611,25.5
		c0,0.917-0.751,2.086-1.669,2.086c-0.584,0-0.918-0.501-0.918-1.336c0-1.334,0.584-2.168,1.335-2.168
		C71.943,24.083,72.611,24.5,72.611,25.5L72.611,25.5z M72.611,25.5"/>
	<path display="inline" fill="#DCE5E4" d="M26.805,29.089l1.001-6.008l0.167,6.008h1.168l2.168-6.008l-0.917,6.008h1.752l1.335-8.01
		h-2.086l-2.336,4.922l-0.083-4.922h-0.918l-2.837,8.01H26.805z M26.805,29.089"/>
	<path display="inline" fill="#DCE5E4" d="M50.918,29.089h1.752c0.501-2.754,0.584-5.006,1.752-4.589
		c0.167-1.085,0.417-1.502,0.584-1.919h-0.333c-0.751,0-1.336,1.001-1.336,1.001l0.168-0.917"/>
	<path display="inline" fill="#DCE5E4" d="M60.764,24.249c0,0,0.751-0.334,1.835-0.334c0.584,0,1.085,0.084,1.085,0.584
		c0,0.333-0.083,0.417-0.083,0.417h-0.752c-1.418,0-3.003,0.584-3.003,2.503c0,1.501,1.001,1.835,1.585,1.835
		c1.168,0,1.669-0.751,1.752-0.751L63.1,29.172h1.502l0.667-4.589c0-1.919-1.668-2.003-2.336-2.003 M64.184,26.168
		c0,0.25-1.001,1.585-2.002,1.585c-0.501,0-0.667-0.417-0.667-0.667c0-0.417,0.25-1.001,1.501-1.001
		C63.35,26.168,64.184,26.168,64.184,26.168L64.184,26.168z M64.184,26.168"/>
	<path display="inline" fill="#DCE5E4" d="M64.935,29.089h1.753c0.5-2.754,0.583-5.006,1.752-4.589
		c0.167-1.085,0.417-1.502,0.584-1.919h-0.334c-0.751,0-1.335,1.001-1.335,1.001l0.167-0.917"/>
</g>
<g display="none">
	<path display="inline" fill="#139CD8" d="M49.998,36.585c3.155-2.847,5.146-6.979,5.146-11.571c0-4.591-1.993-8.722-5.146-11.601
		c-2.755-2.509-6.426-4.04-10.467-4.04c-8.631,0-15.643,7.01-15.643,15.641c0,8.634,7.012,15.61,15.643,15.61
		C43.572,40.627,47.243,39.097,49.998,36.585L49.998,36.585z M49.998,36.585"/>
	<path display="inline" fill="#139CD8" d="M49.998,36.585c3.155-2.847,5.146-6.979,5.146-11.571c0-4.591-1.993-8.722-5.146-11.601
		V36.585z M49.998,36.585"/>
	<path display="inline" fill="#EC2130" d="M60.499,9.373c-4.041,0-7.716,1.532-10.501,4.04c-0.55,0.521-1.07,1.071-1.56,1.654h3.152
		c0.428,0.519,0.825,1.103,1.192,1.652h-5.54c-0.335,0.551-0.642,1.104-0.918,1.651h7.347c0.246,0.552,0.489,1.104,0.674,1.655
		h-8.661c-0.185,0.55-0.338,1.103-0.46,1.684h9.58c0.215,1.041,0.339,2.174,0.339,3.304c0,1.715-0.278,3.401-0.798,4.961h-8.661
		c0.182,0.55,0.396,1.103,0.642,1.654h7.346c-0.273,0.55-0.552,1.132-0.889,1.651h-5.54c0.369,0.582,0.766,1.134,1.195,1.653h3.152
		c-0.489,0.582-1.011,1.134-1.593,1.653c2.785,2.51,6.46,4.04,10.501,4.04c8.631,0,15.612-6.978,15.612-15.611
		C76.109,16.383,69.13,9.373,60.499,9.373L60.499,9.373z M60.499,9.373"/>
	<path display="inline" fill="#FFFFFF" d="M70.721,28.383c0-0.276,0.247-0.491,0.521-0.491c0.275,0,0.489,0.215,0.489,0.491
		c0,0.275-0.214,0.521-0.489,0.521C70.968,28.903,70.721,28.658,70.721,28.383L70.721,28.383z M71.242,28.78
		c0.213,0,0.367-0.183,0.367-0.397c0-0.216-0.154-0.37-0.367-0.37c-0.215,0-0.396,0.154-0.396,0.37
		C70.847,28.598,71.027,28.78,71.242,28.78L71.242,28.78z M71.182,28.598H71.06v-0.431h0.183c0.061,0,0.091,0,0.122,0.033
		c0.032,0.028,0.061,0.059,0.061,0.091c0,0.061-0.03,0.122-0.092,0.122l0.092,0.185h-0.122l-0.061-0.154h-0.061V28.598z
		 M71.182,28.352h0.121v-0.093h-0.121V28.352L71.182,28.352z M71.182,28.352"/>
	<path display="inline" fill="#FFFFFF" d="M37.571,28.903h-1.959l1.164-6.093l-2.662,6.093h-1.777l-0.306-6.063l-1.163,6.063h-1.775
		l1.501-7.929h3.06l0.152,4.896l2.146-4.896h3.15L37.571,28.903z M37.571,28.903"/>
	<path display="inline" fill="#FFFFFF" d="M59.307,28.813c-0.552,0.152-0.952,0.213-1.41,0.213c-0.98,0-1.532-0.491-1.532-1.408
		c0-0.185,0.033-0.369,0.063-0.582l0.121-0.644l0.094-0.489l0.887-4.928h1.927l-0.273,1.469h1.009l-0.274,1.563h-1.011l-0.488,2.692
		c-0.033,0.124-0.063,0.215-0.063,0.276c0,0.337,0.216,0.488,0.676,0.488c0.213,0,0.396-0.03,0.52-0.061L59.307,28.813z
		 M59.307,28.813"/>
	<path display="inline" fill="#FFFFFF" d="M64.967,22.506c-0.152-0.063-0.183-0.063-0.213-0.063c-0.094-0.03-0.154-0.03-0.154-0.06
		h-0.213c-0.646,0-1.102,0.273-1.684,1.037l0.182-0.978h-1.776l-1.193,6.46h1.96c0.704-3.95,0.979-4.654,1.928-4.654
		c0.061,0,0.153,0.03,0.245,0.03l0.215,0.061L64.967,22.506z M64.967,22.506"/>
	<path display="inline" fill="#FFFFFF" d="M51.591,24.494c0,0.796,0.458,1.377,1.499,1.776c0.798,0.337,0.919,0.428,0.919,0.734
		c0,0.397-0.367,0.582-1.132,0.582c-0.582,0-1.134-0.091-1.775-0.273l-0.245,1.499h0.091l0.337,0.091
		c0.122,0,0.305,0.031,0.52,0.031c0.458,0.061,0.828,0.061,1.102,0.061c2.051,0,3.031-0.674,3.031-2.143
		c0-0.889-0.397-1.408-1.406-1.807c-0.83-0.306-0.921-0.397-0.921-0.704c0-0.335,0.339-0.52,0.981-0.52
		c0.365,0,0.915,0.031,1.406,0.091l0.276-1.47c-0.52-0.09-1.284-0.122-1.715-0.122C52.355,22.321,51.591,23.302,51.591,24.494
		L51.591,24.494z M51.591,24.494"/>
	<path display="inline" fill="#FFFFFF" d="M43.877,28.903h-1.593l0.032-0.675c-0.489,0.521-1.164,0.767-2.051,0.767
		c-1.041,0-1.775-0.704-1.775-1.745c0-1.563,1.254-2.48,3.429-2.48c0.211,0,0.489,0,0.795,0.031
		c0.062-0.215,0.062-0.307,0.062-0.397c0-0.43-0.339-0.583-1.256-0.583c-0.551,0-1.161,0.062-1.591,0.153l-0.275,0.093l-0.185,0.029
		l0.275-1.438c0.981-0.244,1.592-0.336,2.327-0.336c1.683,0,2.54,0.642,2.54,1.867c0,0.336-0.03,0.581-0.152,1.286l-0.397,2.295
		l-0.061,0.397l-0.063,0.339l-0.031,0.213L43.877,28.903z M42.469,26.024c-0.216-0.03-0.306-0.03-0.428-0.03
		c-1.104,0-1.653,0.337-1.653,0.98c0,0.397,0.244,0.673,0.672,0.673C41.858,27.647,42.438,26.975,42.469,26.024L42.469,26.024z
		 M42.469,26.024"/>
	<path display="inline" fill="#FFFFFF" d="M50.273,28.75c-0.673,0.183-1.315,0.273-1.989,0.273c-2.171,0-3.306-1.011-3.306-2.908
		c0-2.203,1.439-3.825,3.398-3.825c1.591,0,2.603,0.917,2.603,2.326c0,0.489-0.063,0.949-0.213,1.592h-3.891v0.215
		c0,0.734,0.552,1.132,1.684,1.132c0.705,0,1.347-0.122,2.021-0.396L50.273,28.75z M49.233,24.925v-0.339
		c0-0.52-0.338-0.827-0.918-0.827c-0.614,0-1.042,0.43-1.227,1.166H49.233z M49.233,24.925"/>
	<path display="inline" fill="#FFFFFF" d="M71.027,25.964c-0.307,2.141-1.806,3.092-3.796,3.092c-2.173,0-3.06-1.316-3.06-2.971
		c0-2.265,1.499-3.826,3.824-3.826c2.021,0,3.092,1.285,3.092,2.907C71.09,25.566,71.09,25.596,71.027,25.964L71.027,25.964z
		 M69.009,25.136c0-0.673-0.276-1.283-1.071-1.283c-0.982,0-1.593,1.161-1.593,2.202c0,0.858,0.43,1.441,1.104,1.441
		c0.428,0,1.345-0.583,1.499-1.563C69.009,25.688,69.009,25.413,69.009,25.136L69.009,25.136z M69.009,25.136"/>
</g>
<g>
	<path fill="#2B6BB4" d="M40.529,16.719c0,2.837,1.738,5.215,4.209,6.13V10.587C42.267,11.501,40.529,13.88,40.529,16.719
		L40.529,16.719z M40.529,16.719"/>
	<path fill="#104C96" d="M49.405,10.587v12.261c2.471-0.915,4.209-3.385,4.209-6.13C53.614,13.88,51.876,11.501,49.405,10.587
		L49.405,10.587z M49.405,10.587"/>
	<path fill="#183862" d="M49.405,22.849c2.471-0.915,4.209-3.385,4.209-6.13"/>
	<path fill="#183862" d="M52.426,5.37h-5.31c-6.313,0-11.438,4.667-11.438,11.439c0,6.224,5.125,11.256,11.438,11.256h5.31
		c6.222,0,11.896-5.033,11.896-11.256C64.23,10.037,58.557,5.37,52.426,5.37L52.426,5.37z M47.116,27.06
		c-5.765,0-10.34-4.667-10.34-10.341c0-5.765,4.667-10.434,10.34-10.434c5.766,0,10.433,4.669,10.433,10.434
		C57.459,22.484,52.792,27.06,47.116,27.06L47.116,27.06z M47.116,27.06"/>
	<path fill="#104C96" d="M23.964,35.844c0,0.916,0.64,1.008,1.281,1.008c2.563,0,3.479-1.922,3.479-3.753
		c0-2.286-1.464-3.843-3.753-3.843c-0.458,0-0.732,0-0.914,0.09v6.498H23.964z M22.774,30.17c0-1.098-0.548-1.006-1.099-1.006V28.89
		h3.479c3.111,0,4.757,2.104,4.757,4.209c0,1.19-0.732,4.21-4.941,4.21h-3.385v-0.274c0.732-0.092,1.096-0.092,1.096-0.914v-5.95
		H22.774z M22.774,30.17"/>
	<path fill="#104C96" d="M31.743,29.896c-0.274,0-0.548-0.274-0.548-0.641c0-0.274,0.274-0.55,0.548-0.55
		c0.276,0,0.55,0.275,0.55,0.55C32.292,29.622,32.019,29.896,31.743,29.896 M30.462,36.942h0.274c0.366,0,0.548,0,0.548-0.366
		v-3.295c0-0.548-0.182-0.641-0.641-0.822v-0.185c0.55-0.182,1.19-0.365,1.282-0.456c0.092-0.092,0.182-0.092,0.182-0.092
		c0.092,0,0.092,0.092,0.092,0.183v4.576c0,0.366,0.274,0.366,0.64,0.366h0.184v0.274h-2.563V36.942z M30.462,36.942"/>
	<path fill="#104C96" d="M34.123,33.373c0-0.456-0.092-0.548-0.732-0.824v-0.182c0.548-0.183,1.006-0.366,1.555-0.549
		c0,0,0.092,0,0.092,0.091v0.824c0.641-0.459,1.281-0.915,2.104-0.915c1.006,0,1.373,0.73,1.373,1.646v3.111
		c0,0.366,0.276,0.366,0.642,0.366h0.182v0.273h-2.563v-0.273h0.184c0.366,0,0.548,0,0.548-0.366v-3.111
		c0-0.64-0.458-1.006-1.098-1.006c-0.366,0-1.006,0.274-1.373,0.548v3.569c0,0.366,0.274,0.366,0.641,0.366h0.184v0.273h-2.563
		v-0.273h0.274c0.366,0,0.55,0,0.55-0.366V33.373z M34.123,33.373"/>
	<path fill="#104C96" d="M42.359,33.557c0.274,0,0.366-0.184,0.366-0.275c0-0.641-0.366-1.097-1.006-1.097
		c-0.732,0-1.282,0.549-1.374,1.372H42.359z M40.253,33.923v0.732c0.092,1.099,0.824,2.104,1.74,2.104
		c0.64,0,1.188-0.366,1.646-0.824l0.184,0.185c-0.55,0.731-1.282,1.372-2.196,1.372c-1.922,0-2.289-1.83-2.289-2.654
		c0-2.379,1.556-3.02,2.38-3.02c1.006,0,2.013,0.641,2.013,1.921v0.184H40.253z M40.253,33.923"/>
	<path fill="#104C96" d="M44.005,36.942h0.366c0.366,0,0.55,0,0.55-0.366v-3.385c0-0.366-0.458-0.458-0.642-0.551v-0.182
		c0.916-0.366,1.374-0.641,1.464-0.641c0.092,0,0.092,0,0.092,0.183v1.098c0.274-0.458,0.824-1.189,1.556-1.189
		c0.274,0,0.641,0.184,0.641,0.64c0,0.368-0.184,0.643-0.548,0.643c-0.368,0-0.368-0.274-0.824-0.274
		c-0.184,0-0.916,0.274-0.916,1.006v2.837c0,0.366,0.274,0.366,0.55,0.366h0.64V37.4h-3.111v-0.458H44.005z M44.005,36.942"/>
	<path fill="#104C96" d="M48.673,35.569c0.184,0.824,0.642,1.465,1.556,1.465c0.732,0,1.006-0.458,1.006-0.824
		c0-1.372-2.655-0.914-2.655-2.929c0-0.641,0.55-1.555,1.831-1.555c0.366,0,0.916,0.092,1.372,0.366l0.093,1.188h-0.274
		c-0.092-0.732-0.55-1.188-1.281-1.188c-0.458,0-0.916,0.274-0.916,0.824c0,1.372,2.747,1.006,2.747,2.837
		c0,0.822-0.642,1.646-2.106,1.646c-0.456,0-1.006-0.185-1.464-0.366l-0.09-1.372L48.673,35.569z M48.673,35.569"/>
	<path fill="#104C96" d="M62.95,30.994h-0.276c-0.182-1.372-1.189-1.922-2.563-1.922c-1.372,0-3.385,0.916-3.385,3.845
		c0,2.379,1.738,4.117,3.569,4.117c1.188,0,2.196-0.824,2.378-2.104l0.276,0.092l-0.276,1.738c-0.548,0.274-1.83,0.641-2.652,0.641
		c-2.837,0-4.577-1.831-4.577-4.483c0-2.473,2.196-4.211,4.577-4.211c1.006,0,1.921,0.275,2.837,0.64L62.95,30.994z M62.95,30.994"
		/>
	<path fill="#104C96" d="M63.406,36.942h0.185c0.365,0,0.548,0,0.548-0.366v-6.68c0-0.824-0.183-0.824-0.641-0.915v-0.184
		c0.458-0.184,1.007-0.366,1.28-0.548c0.093-0.092,0.185-0.092,0.276-0.092c0.09,0,0.09,0.092,0.09,0.182v8.328
		c0,0.366,0.274,0.366,0.643,0.366h0.182v0.274h-2.563V36.942z M63.406,36.942"/>
	<path fill="#104C96" d="M71.094,36.576c0,0.184,0.091,0.184,0.366,0.184h0.457v0.274c-0.549,0.092-1.463,0.274-1.739,0.366h-0.092
		v-1.007c-0.732,0.549-1.28,1.007-2.104,1.007c-0.64,0-1.28-0.458-1.28-1.465v-3.11c0-0.276-0.092-0.641-0.732-0.641v-0.184
		c0.458,0,1.373-0.092,1.557-0.092c0.092,0,0.092,0.092,0.092,0.365v3.113c0,0.366,0,1.372,1.007,1.372
		c0.365,0,0.914-0.274,1.462-0.732v-3.202c0-0.276-0.548-0.366-1.006-0.458v-0.183c1.098-0.092,1.74-0.184,1.83-0.184
		c0.092,0,0.092,0.092,0.092,0.184v4.392H71.094z M71.094,36.576"/>
	<path fill="#104C96" d="M73.473,35.844c0,0.458,0.458,1.19,1.282,1.19c1.28,0,1.831-1.28,1.831-2.287
		c0-1.282-1.009-2.38-1.923-2.38c-0.458,0-0.824,0.273-1.099,0.55v2.927H73.473z M73.473,32.641
		c0.458-0.366,1.099-0.822,1.831-0.822c1.372,0,2.196,1.188,2.196,2.562c0,1.556-1.19,3.112-2.837,3.112
		c-0.916,0-1.372-0.276-1.648-0.458l-0.364,0.274l-0.275-0.093c0.092-0.73,0.184-1.372,0.184-2.104v-5.123
		c0-0.824-0.184-0.824-0.642-0.916V28.89c0.458-0.184,1.008-0.366,1.282-0.55c0.092-0.09,0.182-0.09,0.273-0.09
		s0.092,0.09,0.092,0.182v4.209H73.473z M73.473,32.641"/>
	<path fill="#2B6BB4" d="M21.676,44.172h0.092c0.274,0,0.458,0,0.458-0.366v-3.385c0-0.366-0.276-0.366-0.458-0.366h-0.092v-0.184
		h2.015v0.184h-0.092c-0.274,0-0.458,0-0.458,0.366v3.385c0,0.366,0.184,0.366,0.458,0.366h0.092v0.184h-1.922v-0.184H21.676z
		 M21.676,44.172"/>
	<path fill="#2B6BB4" d="M23.69,44.355v-0.184h-0.092c-0.274,0-0.55,0-0.55-0.366v-3.385c0-0.366,0.276-0.366,0.55-0.366h0.092
		v-0.184h-1.922v0.184h0.092c0.274,0,0.548,0,0.548,0.366v3.385c0,0.366-0.274,0.366-0.548,0.366h-0.092v0.184H23.69 M23.69,44.447
		h-1.922v-0.275h0.092c0.274,0,0.458,0,0.458-0.366v-3.385c0-0.366-0.184-0.366-0.458-0.366h-0.184v-0.184h2.015v0.184h-0.092
		c-0.274,0-0.458,0-0.458,0.366v3.385c0,0.366,0.184,0.366,0.458,0.366h0.092V44.447z M23.69,44.447"/>
	<path fill="#2B6BB4" d="M28.174,43.073v-2.471c0-0.548-0.366-0.64-0.548-0.64h-0.184v-0.185h1.738v0.185h-0.09
		c-0.276,0-0.55,0.092-0.55,0.824v3.568h-0.274l-3.387-3.753v2.655c0,0.548,0.092,0.731,0.642,0.731h0.09v0.183h-1.738h0.092
		c0.458,0,0.548-0.274,0.548-0.822v-2.747c0-0.365-0.274-0.548-0.548-0.548v-0.184h1.281L28.174,43.073z M28.174,43.073"/>
	<path fill="#2B6BB4" d="M28.174,43.073L28.174,43.073z M28.174,43.073L28.174,43.073z M28.266,44.447h0.182v-3.57
		c0-0.822,0.366-0.822,0.642-0.822h0.09v-0.184h-1.646v0.184h0.092c0.182,0,0.64,0.09,0.64,0.641v2.471l-2.929-3.295h-1.28v0.184
		h0.092c0.274,0,0.638,0.274,0.638,0.641v2.744c0,0.55-0.182,0.824-0.638,0.824h-0.092v0.184h1.646v-0.184h-0.182
		c-0.55,0-0.642-0.184-0.642-0.824v-2.744L28.266,44.447z M28.54,44.538h-0.274l-3.295-3.661v2.654c0,0.549,0.092,0.732,0.55,0.732
		h0.182v0.184h-1.739v-0.275h0.092c0.456,0,0.548-0.274,0.548-0.822v-2.747c0-0.365-0.274-0.548-0.548-0.548h-0.184v-0.184h1.373
		l2.836,3.202v-2.378c0-0.551-0.366-0.551-0.548-0.551h-0.092v-0.182h1.738v0.182h-0.09c-0.276,0-0.55,0-0.55,0.824V44.538z
		 M28.54,44.538"/>
	<path fill="#2B6BB4" d="M30.188,40.145c-0.458,0-0.55,0.093-0.642,0.551h-0.182c0-0.183,0.092-0.366,0.092-0.551v-0.548h0.183
		c0.092,0.182,0.184,0.182,0.366,0.182h3.387c0.182,0,0.366,0,0.366-0.182h0.182c0,0.182-0.09,0.366-0.09,0.548v0.551l-0.184,0.092
		c0-0.274,0-0.643-0.458-0.643h-1.099v3.479c0,0.456,0.184,0.548,0.55,0.548h0.09v0.184h-2.197v-0.184h0.092
		c0.366,0,0.55,0,0.55-0.548v-3.479H30.188z M30.188,40.145"/>
	<path fill="#2B6BB4" d="M32.749,44.447h-2.197v-0.275h0.092c0.366,0,0.55,0,0.55-0.548v-3.479h-1.006h1.097v3.479
		c0,0.548-0.182,0.548-0.548,0.548h-0.092v0.184h1.099C32.019,44.355,32.475,44.355,32.749,44.447v-0.184h-0.09
		c-0.276,0-0.55-0.092-0.55-0.55v-3.477h1.099c0.458,0,0.458,0.365,0.55,0.64l0.182-0.09v-0.55c0-0.183,0-0.366,0.092-0.459h-0.092
		c0,0.185-0.182,0.185-0.366,0.185h-3.385c-0.184,0-0.366,0-0.366-0.185h-0.276v0.551c0,0.184-0.09,0.366-0.09,0.548h0.183
		c0.092-0.456,0.184-0.64,0.64-0.548c-0.457,0-0.457,0.092-0.548,0.548h-0.366c0-0.182,0.092-0.364,0.092-0.548v-0.551h0.183
		c0,0.185,0.184,0.185,0.366,0.185h3.387c0.182,0,0.274,0,0.366-0.185h0.182c0,0.185-0.09,0.366-0.09,0.551v0.548h-0.276
		c0-0.274,0-0.64-0.458-0.64h-1.006v3.477c0,0.458,0.184,0.55,0.55,0.55h0.182L32.749,44.447z M32.749,44.447"/>
	<path fill="#2B6BB4" d="M34.123,44.172h0.09c0.274,0,0.458,0,0.458-0.366v-3.385c0-0.366-0.274-0.366-0.458-0.366h-0.09v-0.184
		h3.293v1.006h-0.182c0-0.456-0.092-0.732-0.824-0.732h-0.915v1.74h0.823c0.368,0,0.458-0.184,0.55-0.55h0.182V42.8h-0.182
		c0-0.366-0.092-0.641-0.55-0.641h-0.823v1.555c0,0.458,0.366,0.458,0.823,0.458c0.824,0,1.098-0.092,1.374-0.822h0.182
		c-0.09,0.364-0.182,0.73-0.182,1.006h-3.479v-0.184H34.123z M34.123,44.172"/>
	<path fill="#2B6BB4" d="M37.6,44.355c0.092-0.366,0.092-0.642,0.184-1.006h-0.092c-0.184,0.73-0.55,0.822-1.374,0.822
		c-0.364,0-0.823,0-0.823-0.458v-1.555h0.823c0.458,0,0.458,0.274,0.55,0.641h0.182v-1.465h-0.182c0,0.366-0.182,0.55-0.55,0.55
		h-0.823v-1.74h0.915c0.64,0,0.824,0.368,0.824,0.732h0.182v-0.914h-3.203v0.182h0.092c0.274,0,0.55,0,0.55,0.368v3.385
		c0,0.366-0.276,0.366-0.55,0.366h-0.092v0.184h1.74C36.41,44.355,37.142,44.355,37.6,44.355 M37.6,44.447h-3.477v-0.275h0.09
		c0.274,0,0.458,0,0.458-0.366v-3.385c0-0.276-0.184-0.366-0.458-0.366h-0.09v-0.184h3.293v1.006l-0.182,0.092
		c0-0.456-0.092-0.731-0.732-0.731h-0.914v1.647h0.73c0.368,0,0.458-0.184,0.458-0.55h0.184V42.8h-0.184
		c0-0.366-0.09-0.641-0.458-0.641h-0.73v1.465c0,0.365,0.366,0.365,0.73,0.365c0.824,0,1.098,0,1.282-0.731l0.184,0.092
		C37.784,43.714,37.692,44.08,37.6,44.447L37.6,44.447z M37.6,44.447"/>
	<path fill="#2B6BB4" d="M39.522,42.067h0.274c0.64,0,1.006-0.274,1.006-1.007c0-0.548-0.366-0.916-0.915-0.916h-0.366V42.067z
		 M38.698,40.513c0-0.458-0.274-0.458-0.458-0.458h-0.092v-0.184h2.015c0.824,0,1.556,0.184,1.556,1.189
		c0,0.549-0.368,0.915-0.916,1.19l1.098,1.646c0.182,0.274,0.274,0.366,0.64,0.366v0.184h-1.28
		c-0.458-0.642-0.916-1.374-1.373-2.105H39.43v1.372c0,0.458,0.274,0.55,0.548,0.55h0.092v0.184h-2.012v-0.275h0.09
		c0.276,0,0.458-0.092,0.458-0.366v-3.293H38.698z M38.698,40.513"/>
	<path fill="#2B6BB4" d="M39.888,42.067c0.641,0,1.006-0.183,1.006-1.007c0-0.548-0.366-0.916-0.916-0.916h-0.366v1.923H39.888z
		 M39.522,42.067v-2.013h0.366c0.548,0,1.006,0.366,1.006,1.006c0,0.824-0.366,1.007-1.006,1.007H39.522z M39.522,42.251h0.456
		c0.458,0.73,0.824,1.463,1.373,2.104h1.282v-0.184c-0.274,0-0.458-0.092-0.64-0.366l-1.099-1.738
		c0.548-0.183,0.915-0.549,0.915-1.099c0-0.914-0.732-1.098-1.556-1.098H38.24v0.184h0.092c0.182,0,0.458,0,0.458,0.548v3.295
		c0,0.274-0.276,0.366-0.458,0.366h-0.184v0.184h2.015v-0.184H40.07c-0.274,0-0.548,0-0.548-0.55V42.251z M42.633,44.447h-1.282
		c-0.457-0.642-0.915-1.374-1.373-2.105h-0.366v1.372c0,0.458,0.184,0.458,0.55,0.458h0.182v0.184h-2.013v-0.184h0.092
		c0.274,0,0.457-0.092,0.457-0.366v-3.293c0-0.458-0.274-0.458-0.457-0.458h-0.276v-0.184h2.015c0.824,0,1.556,0.273,1.556,1.189
		c0,0.549-0.368,0.915-0.916,1.19l1.098,1.646c0.182,0.274,0.274,0.366,0.64,0.366L42.633,44.447z M42.633,44.447"/>
	<path fill="#2B6BB4" d="M47.026,43.073v-2.471c0-0.548-0.366-0.64-0.55-0.64h-0.182v-0.185h1.739v0.185H47.94
		c-0.274,0-0.548,0.092-0.548,0.824v3.568h-0.276l-3.385-3.753v2.655c0,0.548,0.092,0.731,0.64,0.731h0.184v0.183h-1.74h0.092
		c0.458,0,0.55-0.274,0.55-0.822v-2.747c0-0.365-0.276-0.548-0.642-0.548h-0.09v-0.184h1.28L47.026,43.073z M47.026,43.073"/>
	<path fill="#2B6BB4" d="M47.026,43.073L47.026,43.073z M47.026,43.073L47.026,43.073z M47.116,44.447H47.3v-3.57
		c0-0.822,0.366-0.822,0.64-0.822h0.092v-0.184h-1.646v0.184h0.09c0.184,0,0.64,0.09,0.64,0.641v2.471l-2.929-3.295h-1.28v0.184
		h0.092c0.274,0,0.641,0.274,0.641,0.641v2.744c0,0.55-0.182,0.824-0.641,0.824h-0.092v0.184h1.648v-0.184h-0.092
		c-0.55,0-0.64-0.184-0.64-0.824v-2.744L47.116,44.447z M47.392,44.538h-0.276l-3.293-3.661v2.654c0,0.549,0.09,0.732,0.548,0.732
		h0.184v0.184h-1.74v-0.275h0.092c0.458,0,0.55-0.274,0.55-0.822v-2.747c0-0.365-0.276-0.548-0.55-0.548h-0.182v-0.184h1.373
		l2.836,3.202v-2.378c0-0.551-0.366-0.551-0.548-0.551h-0.184v-0.182h1.738v0.182h-0.092c-0.274,0-0.548,0-0.548,0.824v2.929
		C47.392,44.08,47.392,44.264,47.392,44.538L47.392,44.538z M47.392,44.538"/>
	<path fill="#2B6BB4" d="M50.045,40.603l-0.64,1.831h1.19L50.045,40.603z M49.131,43.439c-0.092,0.185-0.184,0.366-0.184,0.55
		c0,0.183,0.276,0.183,0.458,0.183h0.092v0.184H47.94v-0.184c0.274,0,0.458-0.183,0.55-0.458l1.006-3.019l0.274-0.824
		c0.182-0.093,0.458-0.183,0.64-0.274h0.092c0,0.092,0,0.092,0.092,0.182l1.281,3.479c0.092,0.182,0.184,0.456,0.275,0.64
		c0.09,0.183,0.183,0.274,0.456,0.274v0.184h-1.922v-0.184h0.092c0.184,0,0.366,0,0.366-0.183c0-0.092-0.092-0.275-0.092-0.458
		L50.777,42.8h-1.462L49.131,43.439z M49.131,43.439"/>
	<path fill="#2B6BB4" d="M50.045,40.603L50.045,40.603z M49.497,42.434h1.188l-0.64-1.831L49.497,42.434z M49.405,42.434l0.64-1.921
		l0.64,1.921H49.405z M50.685,44.355h1.831v-0.184c-0.182,0-0.364-0.092-0.456-0.274c-0.092-0.092-0.184-0.366-0.184-0.64
		l-1.191-3.387c0-0.093,0-0.093-0.09-0.183c-0.092,0.09-0.366,0.183-0.55,0.274c0,0.274-0.182,0.55-0.274,0.824l-1.006,3.019
		c-0.092,0.274-0.366,0.458-0.64,0.458v0.184h1.373v-0.184c-0.182,0-0.55,0-0.55-0.274c0-0.092,0.092-0.275,0.184-0.55l0.184-0.732
		h1.554l0.274,0.732c0.092,0.185,0.092,0.366,0.092,0.458c0,0.183-0.274,0.183-0.458,0.183v0.275H50.685z M52.607,44.447h-1.922
		v-0.275h0.092c0.184,0,0.366,0,0.366-0.183c0-0.092-0.092-0.275-0.092-0.458L50.777,42.8h-1.462l-0.184,0.64
		c-0.092,0.185-0.184,0.366-0.184,0.458c0,0.183,0.276,0.183,0.458,0.183h0.092v0.184H47.94v-0.092c0.274,0,0.458-0.183,0.55-0.366
		l1.006-3.019l0.274-0.824c0.182-0.092,0.458-0.185,0.55-0.274h0.182c0,0.09,0,0.09,0.092,0.183l1.281,3.387
		c0.092,0.273,0.184,0.456,0.275,0.64c0.09,0.183,0.183,0.274,0.364,0.274h0.092V44.447z M52.607,44.447"/>
	<path fill="#2B6BB4" d="M52.882,40.145c-0.456,0-0.548,0.093-0.641,0.551H52.06c0-0.183,0.092-0.366,0.092-0.551v-0.548h0.183
		c0.092,0.182,0.182,0.182,0.365,0.182h3.388c0.182,0,0.364,0,0.364-0.182h0.184c0,0.182-0.092,0.366-0.092,0.548v0.551
		l-0.183,0.092c0-0.274-0.092-0.643-0.458-0.643h-1.098v3.479c0,0.456,0.184,0.548,0.55,0.548h0.09v0.184H53.25v-0.184h0.09
		c0.366,0,0.55,0,0.55-0.548v-3.479H52.882z M52.882,40.145"/>
	<path fill="#2B6BB4" d="M55.444,44.447H53.25v-0.275h0.09c0.366,0,0.458,0,0.55-0.548v-3.479h-1.008h1.099v3.479
		c0,0.548-0.183,0.548-0.549,0.548H53.34v0.184h1.099C54.712,44.355,55.17,44.355,55.444,44.447v-0.184h-0.09
		c-0.276,0-0.55-0.092-0.55-0.55v-3.477h1.098c0.458,0,0.458,0.365,0.549,0.64l0.184-0.09v-0.55c0-0.183,0-0.366,0.092-0.459h-0.092
		c0,0.185-0.184,0.185-0.366,0.185h-3.387c-0.183,0-0.274,0-0.366-0.185h-0.09v0.551c0,0.184-0.092,0.366-0.092,0.548h0.182
		c0.092-0.456,0.184-0.64,0.643-0.548c-0.459,0-0.459,0.092-0.551,0.548h-0.273c0-0.182,0.092-0.364,0.092-0.548v-0.551h0.182
		c0,0.185,0.185,0.185,0.366,0.185h3.387c0.183,0,0.274,0,0.366-0.185h0.183c0,0.185-0.093,0.366-0.093,0.551v0.548l-0.273,0.092
		c0-0.273,0-0.64-0.456-0.64h-1.009v3.477c0,0.458,0.185,0.55,0.55,0.55h0.183L55.444,44.447z M55.444,44.447"/>
	<path fill="#2B6BB4" d="M56.816,44.172c0.368,0,0.551,0,0.551-0.366v-3.385c0-0.366-0.274-0.366-0.458-0.366h-0.093v-0.184h2.015
		v0.184h-0.092c-0.274,0-0.458,0-0.458,0.366v3.385c0,0.366,0.275,0.366,0.458,0.366h0.092v0.184h-1.922v-0.184H56.816z
		 M56.816,44.172"/>
	<path fill="#2B6BB4" d="M58.831,44.355v-0.184h-0.092c-0.274,0-0.548,0-0.548-0.366v-3.385c0-0.366,0.273-0.366,0.548-0.366h0.092
		v-0.184h-1.922v0.184h0.092c0.273,0,0.548,0,0.548,0.366v3.385c0,0.366-0.274,0.366-0.548,0.366h-0.092v0.184H58.831
		 M58.831,44.447h-1.922v-0.275h0.092c0.273,0,0.458,0,0.458-0.366v-3.385c0-0.276-0.185-0.366-0.458-0.366h-0.092v-0.184h2.014
		v0.184h-0.092c-0.274,0-0.458,0-0.458,0.366v3.385c0,0.274,0.184,0.366,0.458,0.366h0.092L58.831,44.447z M58.831,44.447"/>
	<path fill="#2B6BB4" d="M61.576,44.172c1.282,0,1.464-1.099,1.464-2.104c0-0.916-0.548-2.104-1.556-2.104
		c-1.188,0-1.463,1.006-1.463,1.922C59.93,43.073,60.478,44.172,61.576,44.172 M61.484,39.778c1.374,0,2.472,0.824,2.472,2.289
		c0,1.464-1.098,2.471-2.472,2.471c-1.373,0-2.471-0.914-2.471-2.379C59.014,40.787,60.111,39.778,61.484,39.778"/>
	<path fill="#2B6BB4" d="M59.93,41.885c0-0.916,0.366-1.922,1.555-1.922c1.098,0,1.647,1.188,1.647,2.104
		c0,0.914-0.182,2.104-1.556,2.104c1.282,0,1.464-1.099,1.464-2.013c0-0.916-0.548-2.104-1.556-2.104
		C60.296,40.055,60.021,41.061,59.93,41.885c0.092,1.188,0.548,2.287,1.646,2.287C60.478,44.264,59.93,43.073,59.93,41.885
		 M59.014,42.159c0-1.372,1.098-2.471,2.471-2.471C60.111,39.778,59.105,40.787,59.014,42.159c0.092,1.372,1.098,2.288,2.471,2.288
		c1.374,0,2.472-1.008,2.472-2.472c0-1.373-1.098-2.197-2.472-2.197c1.374,0,2.563,0.917,2.563,2.289
		c0,1.557-1.097,2.563-2.471,2.563C60.111,44.538,59.014,43.624,59.014,42.159"/>
	<path fill="#2B6BB4" d="M68.348,43.073v-2.471c0-0.548-0.366-0.64-0.548-0.64h-0.183v-0.185h1.736v0.185h-0.09
		c-0.274,0-0.548,0.092-0.548,0.824v3.568h-0.276l-3.385-3.753v2.655c0,0.548,0.09,0.731,0.641,0.731h0.092v0.183h-1.74h0.092
		c0.458,0,0.55-0.274,0.55-0.822v-2.747c0-0.365-0.275-0.548-0.55-0.548h-0.092v-0.184h1.282L68.348,43.073z M68.348,43.073"/>
	<path fill="#2B6BB4" d="M68.348,43.073L68.348,43.073z M68.348,43.073L68.348,43.073z M68.439,44.447h0.185v-3.57
		c0-0.822,0.365-0.822,0.64-0.822h0.09v-0.184h-1.646v0.184H67.8c0.182,0,0.64,0.09,0.64,0.641v2.471l-2.929-3.295h-1.28v0.184
		h0.092c0.274,0,0.641,0.274,0.641,0.641v2.744c0,0.55-0.185,0.824-0.641,0.824H64.23v0.184h1.646v-0.184h-0.09
		c-0.55,0-0.643-0.184-0.643-0.824v-2.744L68.439,44.447z M68.716,44.538h-0.276l-3.295-3.661v2.654
		c0,0.549,0.093,0.732,0.551,0.732h0.182v0.184h-1.738v-0.275h0.092c0.458,0,0.548-0.274,0.548-0.822v-2.747
		c0-0.365-0.273-0.548-0.548-0.548h-0.092v-0.184h1.372l2.837,3.202v-2.378c0-0.551-0.366-0.551-0.548-0.551h-0.183v-0.182h1.736
		v0.182h-0.09c-0.274,0-0.548,0-0.548,0.824V44.538z M68.716,44.538"/>
	<path fill="#2B6BB4" d="M71.368,40.603l-0.64,1.831h1.28L71.368,40.603z M70.454,43.439c-0.092,0.185-0.184,0.366-0.184,0.55
		c0,0.183,0.273,0.183,0.458,0.183h0.092v0.184h-1.557v-0.184c0.274,0,0.458-0.183,0.549-0.458l1.008-3.019l0.273-0.824
		c0.183-0.093,0.459-0.183,0.641-0.274h0.092c0,0.092,0,0.092,0.091,0.182l1.189,3.388c0.093,0.184,0.185,0.458,0.274,0.64
		c0.092,0.366,0.276,0.366,0.458,0.366v0.184h-1.922v-0.184h0.092c0.184,0,0.366,0,0.366-0.183c0-0.092-0.093-0.275-0.093-0.458
		L72.009,42.8h-1.465L70.454,43.439z M70.454,43.439"/>
	<path fill="#2B6BB4" d="M71.368,40.603L71.368,40.603z M70.82,42.434h1.097l-0.549-1.738L70.82,42.434z M70.729,42.434l0.64-1.921
		l0.641,1.921H70.729z M72.009,44.355h1.83v-0.184c-0.182,0-0.366-0.092-0.458-0.274c-0.09-0.184-0.182-0.458-0.274-0.64
		l-1.189-3.387c0-0.093,0-0.093-0.091-0.183c-0.092,0.09-0.366,0.183-0.55,0.274c0,0.274-0.183,0.55-0.274,0.824l-1.006,3.019
		c-0.092,0.274-0.366,0.458-0.55,0.458v0.184h1.374v-0.184c-0.185,0-0.55,0-0.55-0.274c0-0.092,0.092-0.275,0.184-0.55l0.182-0.732
		h1.557l0.274,0.732c0.092,0.185,0.092,0.366,0.092,0.458c0,0.183-0.276,0.183-0.458,0.183v0.275H72.009z M73.931,44.447h-1.922
		v-0.275h0.092c0.182,0,0.366,0,0.366-0.183c0-0.092-0.092-0.275-0.092-0.458L72.101,42.8h-1.465l-0.182,0.64
		c-0.092,0.185-0.184,0.366-0.184,0.458c0,0.183,0.273,0.183,0.458,0.183h0.092v0.184h-1.557v-0.092
		c0.274,0,0.458-0.183,0.549-0.366l1.008-3.019l0.273-0.824c0.183-0.092,0.459-0.185,0.641-0.274h0.183c0,0.09,0,0.09,0.092,0.183
		l1.19,3.387c0.092,0.273,0.182,0.456,0.273,0.64c0.092,0.183,0.185,0.274,0.366,0.274h0.092V44.447z M73.931,44.447"/>
	<path fill="#2B6BB4" d="M75.577,43.806c0,0.274,0.185,0.366,0.366,0.366h0.824c0.274,0,0.55-0.183,0.641-0.366
		c0.092-0.182,0.184-0.366,0.184-0.456h0.183L77.5,44.447h-3.478v-0.275h0.091c0.275,0,0.458,0,0.458-0.458v-3.385
		c0-0.366-0.274-0.366-0.458-0.366h-0.091v-0.185h2.013v0.185h-0.184c-0.274,0-0.456,0-0.456,0.366v3.477H75.577z M75.577,43.806"/>
	<path fill="#2B6BB4" d="M77.5,44.355c0.092-0.366,0.182-0.731,0.274-1.006h-0.093c0,0.182-0.09,0.274-0.182,0.456
		c-0.092,0.184-0.366,0.366-0.641,0.366h-0.824c-0.184,0-0.458-0.092-0.458-0.366v-3.385c0-0.366,0.185-0.366,0.458-0.366h0.093
		v-0.184h-2.015v0.184h0.092c0.274,0,0.55,0,0.55,0.366v3.385c0,0.458-0.275,0.458-0.55,0.458h-0.092v0.184h1.738
		C76.401,44.355,76.95,44.355,77.5,44.355 M77.592,44.447h-3.479v-0.275h0.092c0.274,0,0.458,0,0.458-0.366v-3.385
		c0-0.276-0.184-0.366-0.458-0.366h-0.092v-0.184h2.015v0.184h-0.185c-0.273,0-0.456,0-0.456,0.366v3.385
		c0,0.274,0.183,0.274,0.364,0.366h0.824c0.274,0,0.458-0.183,0.642-0.366c0.091-0.182,0.183-0.274,0.183-0.456h0.182
		C77.774,43.714,77.682,44.08,77.592,44.447L77.592,44.447z M77.592,44.447"/>
	<path fill="#2B6BB4" d="M77.592,40.329c0.183,0,0.183-0.092,0.183-0.185c0-0.09-0.093-0.182-0.093-0.182h-0.09V40.329z
		 M77.408,40.695c0.092,0,0.092,0,0.092-0.093v-0.548c0-0.092,0-0.092-0.092-0.092h0.366c0.092,0,0.273,0.092,0.273,0.182
		c0,0.093-0.09,0.185-0.182,0.185l0.092,0.184c0.09,0.09,0.09,0.183,0.182,0.183h-0.092c-0.09,0-0.09-0.093-0.273-0.274h-0.093
		v0.182c0,0.093,0,0,0.093,0.093H77.408z M77.682,40.877c0.276,0,0.551-0.274,0.551-0.548c0-0.274-0.274-0.551-0.551-0.551
		c-0.273,0-0.548,0.276-0.548,0.551C77.226,40.603,77.408,40.877,77.682,40.877 M77.682,39.688c0.366,0,0.732,0.274,0.732,0.732
		c0,0.456-0.274,0.64-0.732,0.64c-0.456,0-0.731-0.273-0.731-0.64S77.317,39.688,77.682,39.688"/>
	<path fill="#104C96" d="M62.216,14.979c0-2.927-1.188-5.582-3.202-7.686c-1.921-1.19-4.209-1.922-6.588-1.922h-5.31
		c-6.313,0-11.438,4.667-11.438,11.439c0,2.836,1.098,5.401,2.836,7.414c1.831,1.28,4.027,2.196,6.408,2.563
		c-4.669-1.008-8.146-5.125-8.146-10.158c0-5.766,4.667-10.433,10.34-10.433c5.766,0,10.433,4.667,10.433,10.433
		c0,5.673-4.483,10.249-10.157,10.341h0.457C55.719,27.06,62.216,21.66,62.216,14.979L62.216,14.979z M62.216,14.979"/>
	<path fill="#2B6BB4" d="M47.026,5.37c-6.315,0-11.439,4.667-11.439,11.439c0,2.747,1.006,5.309,2.745,7.229l0.274,0.274
		c1.831,1.282,3.935,2.106,6.316,2.563c-4.669-1.007-8.146-5.124-8.146-10.157c0-5.765,4.667-10.434,10.34-10.434
		c5.766,0,10.433,4.669,10.433,10.434c0,5.673-4.483,10.249-10.157,10.341h0.457c0.458,0,0.916,0,1.374-0.092
		c6.04-1.465,9.883-7.596,8.784-14.094c-0.548-3.019-2.013-5.582-4.117-7.412C53.432,5.37,52.974,5.37,52.516,5.37H47.026z
		 M47.026,5.37"/>
</g>
</svg>
