<?xml version="1.0" encoding="utf-8"?>
<!-- Generator: Adobe Illustrator 16.0.0, SVG Export Plug-In . SVG Version: 6.00 Build 0)  -->
<!DOCTYPE svg PUBLIC "-//W3C//DTD SVG 1.1//EN" "http://www.w3.org/Graphics/SVG/1.1/DTD/svg11.dtd">
<svg version="1.1" xmlns="http://www.w3.org/2000/svg" xmlns:xlink="http://www.w3.org/1999/xlink" x="0px" y="0px" width="100px"
	 height="50px" viewBox="0 0 100 50" enable-background="new 0 0 100 50" xml:space="preserve">
<g id="Layer_2">
	<rect fill="#FFFFFF" width="100" height="50"/>
</g>
<g id="Layer_1">
	<g>
		<g>
			<path fill="#6A6B6B" d="M35.092,30.473V27.9c0-2.94,2.393-5.333,5.332-5.333c2.94,0,5.332,2.392,5.332,5.333v2.572h1.882V27.9
				c0-3.979-3.237-7.214-7.214-7.214S33.21,23.922,33.21,27.9v2.572H35.092L35.092,30.473z"/>
			<path fill="#333333" d="M40.424,20.687v1.882c2.94,0,5.332,2.392,5.332,5.332v2.572h1.882V27.9
				C47.639,23.923,44.402,20.687,40.424,20.687z"/>
			<path fill="#71C2A0" d="M32.55,29.412v3.154c0,4.379,3.544,7.959,7.875,7.959c4.333,0,7.875-3.58,7.875-7.959v-3.154H32.55z"/>
			<path fill="#64AF89" d="M40.424,29.412v11.113c4.333,0,7.875-3.58,7.875-7.959v-3.154H40.424z"/>
			<polygon fill="#FFFFFF" points="43.517,31.473 39.434,35.555 37.333,33.454 37.137,33.648 36.135,34.654 39.434,37.953 
				40.633,36.752 44.715,32.672 			"/>
		</g>
		<path fill="#3A3A3A" d="M5.338,23.697h11.957c0.175,0,0.318-0.145,0.318-0.318v-2.698c0-0.176-0.143-0.318-0.318-0.318H5.338
			c-0.175,0-0.318,0.142-0.318,0.318v2.698C5.02,23.554,5.164,23.697,5.338,23.697z"/>
		<path fill="#3A3A3A" d="M5.338,26.447h15.608c0.174,0,0.318-0.143,0.318-0.316v-0.053c0-0.174-0.144-0.318-0.318-0.318H5.338
			c-0.175,0-0.318,0.146-0.318,0.318v0.053C5.02,26.307,5.164,26.447,5.338,26.447z"/>
		<path fill="#3A3A3A" d="M5.338,28.616h10.271c0.174,0,0.318-0.142,0.318-0.315v-0.053c0-0.176-0.144-0.318-0.318-0.318H5.338
			c-0.175,0-0.318,0.145-0.318,0.318v0.053C5.02,28.475,5.164,28.616,5.338,28.616z"/>
		<path fill="#3A3A3A" d="M32.435,33.129v-0.742H5.143c-0.848,0-1.537-0.677-1.537-1.508V18.83h37.221v1.807
			c0.29-0.026,0.585-0.041,0.884-0.041c0.116,0,0.231,0.003,0.347,0.008V18.83v-4.71v-1.626c0-1.496-1.243-2.712-2.768-2.712H5.143
			c-1.526,0-2.768,1.217-2.768,2.712v1.626v4.709v12.049c0,1.496,1.242,2.713,2.768,2.713H32.45
			C32.44,33.439,32.435,33.283,32.435,33.129z M3.606,12.494c0-0.831,0.689-1.507,1.537-1.507H39.29
			c0.848,0,1.537,0.676,1.537,1.507v1.626H3.606V12.494z"/>
	</g>
	<g enable-background="new    ">
		<path fill="#1B1C1C" d="M52.102,12.742c0.492,0.252,1.248,0.504,2.027,0.504c0.839,0,1.283-0.348,1.283-0.876
			c0-0.504-0.385-0.791-1.355-1.14c-1.344-0.468-2.219-1.211-2.219-2.387c0-1.379,1.15-2.435,3.059-2.435
			c0.912,0,1.582,0.192,2.063,0.408l-0.408,1.476c-0.323-0.156-0.899-0.385-1.69-0.385s-1.176,0.36-1.176,0.78
			c0,0.516,0.457,0.743,1.5,1.14c1.428,0.527,2.1,1.271,2.1,2.41c0,1.355-1.044,2.507-3.264,2.507c-0.922,0-1.834-0.24-2.291-0.492
			L52.102,12.742z"/>
		<path fill="#1B1C1C" d="M61.893,14.625l-0.108-0.588h-0.035c-0.386,0.468-0.983,0.72-1.681,0.72c-1.188,0-1.895-0.863-1.895-1.799
			c0-1.523,1.367-2.255,3.441-2.243v-0.084c0-0.312-0.168-0.755-1.066-0.755c-0.6,0-1.236,0.203-1.619,0.443l-0.336-1.176
			c0.407-0.228,1.211-0.516,2.278-0.516c1.955,0,2.579,1.151,2.579,2.531v2.039c0,0.563,0.023,1.103,0.084,1.427L61.893,14.625
			L61.893,14.625z M61.676,11.854c-0.959-0.012-1.703,0.216-1.703,0.924c0,0.468,0.313,0.695,0.719,0.695
			c0.457,0,0.828-0.3,0.949-0.672c0.023-0.096,0.035-0.204,0.035-0.312V11.854z"/>
		<path fill="#1B1C1C" d="M65.098,14.625v-4.521H64.33V8.76h0.768V8.532c0-0.707,0.217-1.487,0.744-1.967
			c0.455-0.432,1.092-0.588,1.619-0.588c0.407,0,0.719,0.048,0.971,0.12L68.359,7.5c-0.154-0.048-0.348-0.084-0.588-0.084
			c-0.6,0-0.852,0.468-0.852,1.043v0.3h1.176v1.344h-1.162v4.521L65.098,14.625L65.098,14.625z"/>
		<path fill="#1B1C1C" d="M70.27,12.274c0.06,0.756,0.804,1.115,1.654,1.115c0.623,0,1.127-0.084,1.619-0.24l0.24,1.235
			c-0.6,0.24-1.332,0.36-2.123,0.36c-1.991,0-3.131-1.151-3.131-2.986c0-1.487,0.924-3.131,2.963-3.131
			c1.895,0,2.613,1.476,2.613,2.927c0,0.312-0.035,0.588-0.06,0.72H70.27z M72.416,11.027c0-0.444-0.191-1.188-1.032-1.188
			c-0.768,0-1.079,0.695-1.127,1.188H72.416z"/>
		<path fill="#1B1C1C" d="M82.83,14.625c-0.168-0.18-0.336-0.359-0.527-0.576c-0.527,0.408-1.26,0.708-2.219,0.708
			c-1.955,0-2.818-1.163-2.818-2.291c0-1.067,0.611-1.835,1.535-2.314v-0.048c-0.348-0.384-0.611-0.983-0.611-1.56
			c0-1.019,0.804-2.135,2.422-2.135c1.248,0,2.195,0.731,2.195,1.896c0,0.815-0.479,1.511-1.596,2.074l-0.012,0.049
			c0.468,0.516,0.959,1.104,1.355,1.511c0.323-0.504,0.574-1.247,0.684-1.967h1.631c-0.217,1.224-0.623,2.267-1.344,3.07
			c0.455,0.516,0.924,1.043,1.428,1.583H82.83z M81.451,13.03c-0.504-0.504-1.164-1.235-1.823-1.979
			c-0.336,0.24-0.636,0.588-0.636,1.115c0,0.684,0.516,1.271,1.344,1.271C80.814,13.438,81.211,13.258,81.451,13.03z M79.82,8.376
			c0,0.408,0.19,0.768,0.551,1.164c0.588-0.408,0.889-0.72,0.889-1.188c0-0.384-0.229-0.804-0.708-0.804
			C80.084,7.549,79.82,7.957,79.82,8.376z"/>
	</g>
	<g enable-background="new    ">
		<path fill="#1B1C1C" d="M52.102,27.143c0.492,0.252,1.248,0.504,2.027,0.504c0.839,0,1.283-0.348,1.283-0.875
			c0-0.504-0.385-0.791-1.355-1.141c-1.344-0.468-2.219-1.211-2.219-2.387c0-1.379,1.15-2.435,3.059-2.435
			c0.912,0,1.582,0.192,2.063,0.408l-0.408,1.476c-0.323-0.156-0.899-0.385-1.69-0.385s-1.176,0.36-1.176,0.78
			c0,0.516,0.457,0.743,1.5,1.14c1.428,0.527,2.1,1.271,2.1,2.411c0,1.354-1.044,2.506-3.264,2.506
			c-0.922,0-1.834-0.239-2.291-0.492L52.102,27.143z"/>
		<path fill="#1B1C1C" d="M59.949,26.675c0.06,0.757,0.803,1.115,1.654,1.115c0.623,0,1.127-0.084,1.619-0.24l0.239,1.235
			c-0.601,0.24-1.331,0.359-2.123,0.359c-1.989,0-3.13-1.15-3.13-2.985c0-1.487,0.923-3.131,2.962-3.131
			c1.896,0,2.615,1.476,2.615,2.927c0,0.313-0.037,0.588-0.062,0.72H59.949z M62.096,25.428c0-0.444-0.191-1.188-1.031-1.188
			c-0.768,0-1.08,0.695-1.127,1.188H62.096z"/>
		<path fill="#1B1C1C" d="M69.283,28.882c-0.324,0.144-0.936,0.265-1.631,0.265c-1.896,0-3.106-1.151-3.106-3
			c0-1.714,1.175-3.118,3.358-3.118c0.479,0,1.007,0.084,1.391,0.229l-0.287,1.354c-0.217-0.096-0.54-0.18-1.02-0.18
			c-0.961,0-1.584,0.684-1.572,1.644c0,1.079,0.721,1.643,1.607,1.643c0.432,0,0.768-0.07,1.043-0.18L69.283,28.882z"/>
		<path fill="#1B1C1C" d="M75.822,27.143c0,0.769,0.023,1.392,0.048,1.883h-1.583l-0.084-0.826h-0.036
			c-0.228,0.359-0.78,0.959-1.835,0.959c-1.188,0-2.063-0.743-2.063-2.555V23.16h1.834v3.154c0,0.852,0.275,1.367,0.912,1.367
			c0.504,0,0.791-0.349,0.911-0.636c0.048-0.108,0.06-0.252,0.06-0.396v-3.49h1.836V27.143z"/>
		<path fill="#1B1C1C" d="M77.289,25.092c0-0.863-0.023-1.428-0.048-1.932h1.571l0.061,1.08h0.047
			c0.301-0.852,1.02-1.212,1.584-1.212c0.168,0,0.252,0,0.383,0.024v1.715c-0.131-0.023-0.287-0.048-0.49-0.048
			c-0.672,0-1.129,0.359-1.248,0.924c-0.023,0.121-0.035,0.265-0.035,0.407v2.976H77.29L77.289,25.092L77.289,25.092z"/>
		<path fill="#1B1C1C" d="M83.156,26.675c0.061,0.757,0.804,1.115,1.654,1.115c0.625,0,1.129-0.084,1.619-0.24l0.239,1.235
			c-0.601,0.24-1.331,0.359-2.123,0.359c-1.989,0-3.129-1.15-3.129-2.985c0-1.487,0.923-3.131,2.962-3.131
			c1.895,0,2.614,1.476,2.614,2.927c0,0.313-0.036,0.588-0.062,0.72H83.156z M85.303,25.428c0-0.444-0.191-1.188-1.031-1.188
			c-0.768,0-1.078,0.695-1.127,1.188H85.303z"/>
	</g>
	<g enable-background="new    ">
		<path fill="#1B1C1C" d="M52.041,35.449c0.564-0.096,1.355-0.168,2.471-0.168c1.129,0,1.932,0.216,2.471,0.646
			c0.517,0.408,0.863,1.08,0.863,1.871c0,0.792-0.264,1.463-0.742,1.919c-0.625,0.589-1.547,0.853-2.627,0.853
			c-0.24,0-0.455-0.012-0.623-0.036v2.891h-1.813V35.449z M53.854,39.119c0.154,0.036,0.348,0.048,0.611,0.048
			c0.971,0,1.57-0.491,1.57-1.319c0-0.742-0.516-1.188-1.428-1.188c-0.371,0-0.623,0.035-0.756,0.072v2.387H53.854z"/>
		<path fill="#1B1C1C" d="M62.072,43.425l-0.108-0.588h-0.036c-0.384,0.468-0.982,0.72-1.68,0.72c-1.188,0-1.895-0.863-1.895-1.799
			c0-1.523,1.367-2.255,3.441-2.242v-0.084c0-0.313-0.168-0.756-1.066-0.756c-0.601,0-1.235,0.203-1.619,0.443l-0.336-1.176
			c0.408-0.229,1.211-0.517,2.278-0.517c1.955,0,2.578,1.151,2.578,2.531v2.039c0,0.563,0.022,1.103,0.084,1.427L62.072,43.425
			L62.072,43.425z M61.855,40.654c-0.959-0.012-1.703,0.216-1.703,0.924c0,0.468,0.313,0.695,0.72,0.695
			c0.456,0,0.827-0.301,0.948-0.672c0.022-0.097,0.035-0.205,0.035-0.313V40.654L61.855,40.654z"/>
		<path fill="#1B1C1C" d="M66.297,37.561l0.876,2.879c0.097,0.348,0.216,0.778,0.288,1.092h0.035
			c0.084-0.313,0.18-0.756,0.264-1.092l0.721-2.879h1.955l-1.367,3.861c-0.84,2.327-1.403,3.264-2.063,3.85
			c-0.636,0.553-1.308,0.744-1.763,0.805l-0.385-1.547c0.229-0.036,0.516-0.146,0.791-0.313c0.276-0.145,0.576-0.433,0.756-0.732
			c0.061-0.084,0.097-0.18,0.097-0.264c0-0.06-0.013-0.154-0.084-0.3l-2.147-5.36H66.297z"/>
		<path fill="#1B1C1C" d="M71.205,39.432c0-0.731-0.023-1.354-0.047-1.871h1.535l0.084,0.791h0.035
			c0.252-0.371,0.768-0.924,1.774-0.924c0.756,0,1.354,0.385,1.606,0.996h0.023c0.217-0.3,0.48-0.54,0.756-0.708
			c0.324-0.19,0.685-0.288,1.115-0.288c1.127,0,1.979,0.792,1.979,2.543v3.454h-1.773v-3.19c0-0.852-0.275-1.342-0.863-1.342
			c-0.42,0-0.72,0.287-0.84,0.635c-0.048,0.133-0.072,0.324-0.072,0.469v3.43h-1.773v-3.285c0-0.744-0.264-1.248-0.84-1.248
			c-0.469,0-0.744,0.359-0.853,0.659c-0.061,0.146-0.071,0.313-0.071,0.456v3.418h-1.775V39.432z"/>
		<path fill="#1B1C1C" d="M82.93,41.074c0.06,0.756,0.803,1.115,1.654,1.115c0.623,0,1.127-0.084,1.619-0.24l0.24,1.234
			c-0.601,0.24-1.332,0.36-2.123,0.36c-1.991,0-3.131-1.151-3.131-2.985c0-1.488,0.924-3.132,2.963-3.132
			c1.895,0,2.613,1.476,2.613,2.927c0,0.313-0.035,0.588-0.06,0.721H82.93z M85.076,39.827c0-0.444-0.192-1.188-1.032-1.188
			c-0.769,0-1.079,0.695-1.127,1.188H85.076z"/>
		<path fill="#1B1C1C" d="M87.861,39.432c0-0.731-0.023-1.354-0.049-1.871h1.584l0.084,0.804h0.035
			c0.239-0.371,0.84-0.937,1.813-0.937c1.199,0,2.098,0.792,2.098,2.52v3.479h-1.822v-3.25c0-0.756-0.264-1.271-0.924-1.271
			c-0.504,0-0.803,0.348-0.924,0.684c-0.047,0.108-0.07,0.288-0.07,0.456v3.382h-1.824V39.432L87.861,39.432z"/>
		<path fill="#1B1C1C" d="M96.859,35.881v1.68h1.309v1.344h-1.309v2.123c0,0.707,0.168,1.031,0.721,1.031
			c0.229,0,0.408-0.024,0.539-0.049l0.013,1.379c-0.239,0.096-0.672,0.156-1.188,0.156c-0.588,0-1.078-0.204-1.366-0.504
			c-0.336-0.348-0.504-0.911-0.504-1.739v-2.397h-0.779v-1.344h0.779v-1.271L96.859,35.881z"/>
	</g>
</g>
</svg>
