<?xml version="1.0" encoding="utf-8"?>
<!-- Generator: Adobe Illustrator 16.0.0, SVG Export Plug-In . SVG Version: 6.00 Build 0)  -->
<!DOCTYPE svg PUBLIC "-//W3C//DTD SVG 1.1//EN" "http://www.w3.org/Graphics/SVG/1.1/DTD/svg11.dtd">
<svg version="1.1" xmlns="http://www.w3.org/2000/svg" xmlns:xlink="http://www.w3.org/1999/xlink" x="0px" y="0px" width="100px"
	 height="50px" viewBox="0 0 100 50" enable-background="new 0 0 100 50" xml:space="preserve">
<g id="Layer_1">
	<rect y="0" fill="#FFFFFF" width="100" height="50"/>
	<g>
		<path fill="#71C2A0" d="M42.229,39.722c-2.979,2.979-16.849,7.953-16.849,7.953S11.511,42.7,8.533,39.722
			C0.775,31.966,9.58,3.791,9.58,3.791s9.74-1.465,15.801-1.465c5.713,0,15.8,1.465,15.8,1.465S49.985,31.966,42.229,39.722z"/>
		<path fill="none" stroke="#FFFFFF" stroke-width="2.5" stroke-miterlimit="10" d="M25.381,43.479
			c-4.752-1.742-12.221-4.85-13.885-6.515c-2.384-2.383-2.962-8.486-1.631-17.193c0.769-5.012,1.983-9.65,2.621-11.915
			c4.721-0.906,10.077-1.261,12.896-1.261c2.818,0,8.376,0.342,12.896,1.261c0.639,2.265,1.852,6.903,2.621,11.915
			c1.33,8.707,0.752,14.81-1.631,17.193C37.601,38.633,30.133,41.737,25.381,43.479z"/>
		<g>
			<path fill="#FFFFFF" d="M15.357,30.306h0.58v1.992h0.014c0.092-0.165,0.237-0.31,0.416-0.409
				c0.172-0.099,0.375-0.165,0.594-0.165c0.429,0,1.114,0.265,1.114,1.366v1.899h-0.581v-1.834c0-0.515-0.191-0.949-0.739-0.949
				c-0.375,0-0.673,0.265-0.778,0.581c-0.033,0.078-0.041,0.165-0.041,0.275v1.927h-0.58V30.306z"/>
			<path fill="#FFFFFF" d="M19.691,30.879v0.917h0.832v0.443h-0.832v1.721c0,0.396,0.112,0.62,0.436,0.62
				c0.151,0,0.264-0.018,0.336-0.039l0.026,0.438c-0.112,0.046-0.29,0.078-0.515,0.078c-0.27,0-0.488-0.088-0.626-0.246
				c-0.165-0.17-0.225-0.455-0.225-0.831v-1.74h-0.494v-0.443h0.494v-0.765L19.691,30.879z"/>
			<path fill="#FFFFFF" d="M21.874,30.879v0.917h0.832v0.443h-0.832v1.721c0,0.396,0.112,0.62,0.437,0.62
				c0.151,0,0.263-0.018,0.336-0.039l0.026,0.438c-0.112,0.046-0.29,0.078-0.515,0.078c-0.27,0-0.488-0.088-0.626-0.246
				c-0.166-0.17-0.225-0.455-0.225-0.831v-1.74h-0.495v-0.443h0.495v-0.765L21.874,30.879z"/>
			<path fill="#FFFFFF" d="M23.359,32.84c0-0.409-0.013-0.739-0.026-1.044h0.521l0.026,0.549h0.013
				c0.238-0.391,0.613-0.621,1.135-0.621c0.772,0,1.353,0.652,1.353,1.624c0,1.148-0.7,1.715-1.451,1.715
				c-0.423,0-0.792-0.185-0.983-0.5h-0.013v1.733h-0.574V32.84z M23.933,33.69c0,0.085,0.013,0.163,0.026,0.237
				c0.105,0.4,0.456,0.68,0.871,0.68c0.614,0,0.97-0.501,0.97-1.234c0-0.641-0.336-1.188-0.95-1.188
				c-0.396,0-0.766,0.285-0.877,0.72c-0.02,0.072-0.04,0.157-0.04,0.237V33.69z"/>
			<path fill="#FFFFFF" d="M27.027,34.113c0.185,0.112,0.567,0.242,0.864,0.242c0.303,0,0.429-0.106,0.429-0.271
				c0-0.163-0.1-0.242-0.475-0.37c-0.667-0.224-0.924-0.586-0.918-0.968c0-0.602,0.516-1.058,1.314-1.058
				c0.375,0,0.712,0.087,0.91,0.187l-0.178,0.693c-0.146-0.081-0.422-0.186-0.698-0.186c-0.247,0-0.384,0.1-0.384,0.265
				c0,0.151,0.126,0.231,0.521,0.369c0.615,0.211,0.871,0.522,0.877,0.994c0,0.603-0.474,1.045-1.398,1.045
				c-0.422,0-0.797-0.093-1.042-0.225L27.027,34.113z"/>
			<path fill="#FFFFFF" d="M29.837,32.326c0-0.245,0.164-0.418,0.396-0.418c0.23,0,0.382,0.173,0.388,0.418
				c0,0.229-0.151,0.406-0.394,0.406C29.995,32.732,29.837,32.556,29.837,32.326z M29.837,34.653c0-0.243,0.164-0.416,0.396-0.416
				c0.23,0,0.382,0.173,0.388,0.416c0,0.23-0.151,0.409-0.394,0.409C29.995,35.063,29.837,34.884,29.837,34.653z"/>
			<path fill="#FFFFFF" d="M30.853,35.255l1.842-4.784h0.447l-1.848,4.784H30.853z"/>
			<path fill="#FFFFFF" d="M33.116,35.255l1.839-4.784h0.45l-1.846,4.784H33.116z"/>
		</g>
		<g>
			<g>
				<path fill="#FFFFFF" d="M22.654,15.846c-0.007-0.083-0.012-1.125-0.012-1.208c0-1.513,1.226-2.74,2.739-2.74
					s2.739,1.227,2.739,2.74c0,0.083-0.004,1.125-0.012,1.208h1.021c0.005-0.084,0.009-1.125,0.009-1.208
					c0-2.077-1.682-3.758-3.756-3.758s-3.756,1.681-3.756,3.758c0,0.083,0.004,1.124,0.01,1.208H22.654z"/>
				<path fill="#FFFFFF" d="M29.682,16.268H21.08c-0.973,0-1.76,0.708-1.76,1.581v7.73c0,0.873,0.788,1.581,1.76,1.581l8.8-0.01
					c0.878-0.088,1.562-0.758,1.562-1.571v-7.73C31.442,16.976,30.655,16.268,29.682,16.268z"/>
			</g>
			<polygon fill="#71C2A0" points="28.513,17.896 24.868,23.595 21.805,20.982 20.898,22.292 24.904,25.533 29.864,18.841 			"/>
		</g>
	</g>
</g>
<g id="Layer_2">
	<g>
		<path d="M51.892,11.642c0.515,0.264,1.307,0.527,2.122,0.527c0.879,0,1.344-0.364,1.344-0.917c0-0.527-0.401-0.829-1.419-1.193
			c-1.406-0.49-2.323-1.269-2.323-2.499c0-1.444,1.206-2.549,3.202-2.549c0.955,0,1.658,0.201,2.16,0.427l-0.427,1.544
			c-0.339-0.163-0.942-0.401-1.771-0.401c-0.829,0-1.23,0.376-1.23,0.816c0,0.54,0.477,0.779,1.569,1.193
			c1.494,0.553,2.197,1.332,2.197,2.524c0,1.419-1.092,2.625-3.415,2.625c-0.967,0-1.922-0.251-2.398-0.515L51.892,11.642z"/>
		<path d="M58.675,11.642c0.515,0.264,1.306,0.527,2.122,0.527c0.879,0,1.344-0.364,1.344-0.917c0-0.527-0.401-0.829-1.419-1.193
			c-1.406-0.49-2.323-1.269-2.323-2.499c0-1.444,1.206-2.549,3.202-2.549c0.955,0,1.658,0.201,2.16,0.427l-0.427,1.544
			c-0.339-0.163-0.942-0.401-1.771-0.401c-0.829,0-1.231,0.376-1.231,0.816c0,0.54,0.478,0.779,1.57,1.193
			c1.494,0.553,2.197,1.332,2.197,2.524c0,1.419-1.092,2.625-3.415,2.625c-0.968,0-1.922-0.251-2.399-0.515L58.675,11.642z"/>
		<path d="M65.396,5.149h1.921v6.856h3.366v1.607h-5.287V5.149z"/>
		<path d="M51.892,26.715c0.515,0.264,1.307,0.527,2.122,0.527c0.879,0,1.344-0.364,1.344-0.917c0-0.527-0.401-0.828-1.419-1.192
			c-1.406-0.49-2.323-1.269-2.323-2.499c0-1.444,1.206-2.549,3.202-2.549c0.955,0,1.658,0.201,2.16,0.427l-0.427,1.544
			c-0.339-0.163-0.942-0.401-1.771-0.401c-0.829,0-1.23,0.376-1.23,0.816c0,0.54,0.477,0.779,1.569,1.193
			c1.494,0.553,2.197,1.332,2.197,2.524c0,1.419-1.092,2.625-3.415,2.625c-0.967,0-1.922-0.252-2.398-0.516L51.892,26.715z"/>
		<path d="M60.106,26.226c0.063,0.791,0.842,1.167,1.733,1.167c0.652,0,1.18-0.088,1.695-0.251l0.251,1.294
			c-0.628,0.251-1.395,0.377-2.223,0.377c-2.085,0-3.278-1.206-3.278-3.127c0-1.558,0.968-3.278,3.103-3.278
			c1.983,0,2.737,1.544,2.737,3.064c0,0.326-0.038,0.615-0.063,0.754H60.106z M62.354,24.919c0-0.464-0.201-1.243-1.08-1.243
			c-0.804,0-1.13,0.729-1.181,1.243H62.354z"/>
		<path d="M69.878,28.536c-0.339,0.15-0.979,0.276-1.708,0.276c-1.984,0-3.253-1.206-3.253-3.14c0-1.796,1.231-3.265,3.517-3.265
			c0.502,0,1.055,0.088,1.457,0.238l-0.302,1.419c-0.226-0.101-0.565-0.188-1.067-0.188c-1.005,0-1.657,0.716-1.646,1.721
			c0,1.13,0.754,1.72,1.684,1.72c0.452,0,0.804-0.075,1.092-0.188L69.878,28.536z"/>
		<path d="M76.724,26.715c0,0.804,0.024,1.457,0.05,1.972h-1.657l-0.088-0.866H74.99c-0.238,0.376-0.816,1.004-1.921,1.004
			c-1.244,0-2.16-0.778-2.16-2.675v-3.604h1.921v3.303c0,0.892,0.289,1.432,0.955,1.432c0.527,0,0.828-0.364,0.954-0.666
			c0.05-0.113,0.063-0.264,0.063-0.414v-3.654h1.922V26.715z"/>
		<path d="M78.257,24.567c0-0.904-0.024-1.494-0.05-2.021h1.646l0.063,1.13h0.05c0.314-0.892,1.067-1.268,1.658-1.268
			c0.176,0,0.264,0,0.401,0.025v1.796c-0.138-0.025-0.301-0.05-0.515-0.05c-0.703,0-1.181,0.377-1.306,0.967
			c-0.025,0.125-0.038,0.276-0.038,0.427v3.114h-1.909V24.567z"/>
		<path d="M84.399,26.226c0.063,0.791,0.842,1.167,1.733,1.167c0.652,0,1.18-0.088,1.695-0.251l0.251,1.294
			c-0.628,0.251-1.395,0.377-2.223,0.377c-2.085,0-3.278-1.206-3.278-3.127c0-1.558,0.968-3.278,3.103-3.278
			c1.983,0,2.737,1.544,2.737,3.064c0,0.326-0.038,0.615-0.063,0.754H84.399z M86.647,24.919c0-0.464-0.201-1.243-1.08-1.243
			c-0.804,0-1.13,0.729-1.181,1.243H86.647z"/>
		<path d="M95.515,19.771v7.083c0,0.69,0.024,1.419,0.05,1.833h-1.695l-0.088-0.904h-0.025c-0.389,0.69-1.13,1.042-1.921,1.042
			c-1.457,0-2.625-1.243-2.625-3.151c-0.013-2.072,1.281-3.265,2.751-3.265c0.753,0,1.344,0.264,1.619,0.69h0.025v-3.328H95.515z
			 M93.605,25.146c0-0.101-0.013-0.239-0.025-0.339c-0.112-0.515-0.527-0.942-1.117-0.942c-0.866,0-1.318,0.779-1.318,1.745
			c0,1.043,0.515,1.695,1.306,1.695c0.553,0,0.992-0.376,1.105-0.916c0.037-0.139,0.05-0.276,0.05-0.439V25.146z"/>
		<path d="M53.198,43.761l-2.01-8.464h2.047l0.641,3.491c0.188,1.004,0.364,2.097,0.502,2.951h0.025
			c0.138-0.917,0.339-1.935,0.553-2.977l0.716-3.466h2.034l0.678,3.566c0.188,0.992,0.327,1.896,0.452,2.838h0.025
			c0.126-0.941,0.313-1.934,0.489-2.938l0.691-3.466h1.946l-2.186,8.464h-2.071l-0.716-3.642c-0.164-0.854-0.302-1.646-0.402-2.612
			h-0.025c-0.15,0.954-0.288,1.758-0.489,2.612l-0.804,3.642H53.198z"/>
		<path d="M63.862,41.3c0.063,0.791,0.842,1.167,1.733,1.167c0.652,0,1.18-0.088,1.695-0.251l0.251,1.294
			c-0.628,0.251-1.395,0.377-2.223,0.377c-2.085,0-3.278-1.206-3.278-3.127c0-1.558,0.968-3.278,3.103-3.278
			c1.983,0,2.737,1.545,2.737,3.064c0,0.326-0.038,0.615-0.063,0.754H63.862z M66.11,39.993c0-0.465-0.201-1.243-1.08-1.243
			c-0.804,0-1.13,0.729-1.181,1.243H66.11z"/>
		<path d="M68.975,43.761c0.025-0.402,0.05-1.143,0.05-1.833v-7.083h1.909v3.504h0.025c0.364-0.527,1.005-0.867,1.858-0.867
			c1.47,0,2.549,1.219,2.537,3.103c0,2.21-1.407,3.314-2.813,3.314c-0.716,0-1.406-0.264-1.846-0.991H70.67l-0.075,0.854H68.975z
			 M70.934,41.148c0,0.126,0.013,0.239,0.038,0.339c0.125,0.516,0.564,0.904,1.117,0.904c0.816,0,1.318-0.628,1.318-1.732
			c0-0.955-0.427-1.708-1.318-1.708c-0.515,0-0.992,0.39-1.117,0.941c-0.025,0.113-0.038,0.227-0.038,0.352V41.148z"/>
		<path d="M76.524,42.091c0.352,0.213,1.079,0.465,1.645,0.465c0.578,0,0.816-0.201,0.816-0.516c0-0.313-0.188-0.465-0.904-0.703
			c-1.269-0.427-1.758-1.117-1.745-1.846c0-1.143,0.979-2.01,2.499-2.01c0.716,0,1.356,0.163,1.732,0.352l-0.339,1.319
			c-0.276-0.151-0.804-0.352-1.331-0.352c-0.465,0-0.729,0.188-0.729,0.502c0,0.289,0.238,0.439,0.992,0.703
			c1.168,0.402,1.657,0.992,1.67,1.896c0,1.143-0.904,1.984-2.662,1.984c-0.804,0-1.52-0.176-1.984-0.428L76.524,42.091z"/>
		<path d="M83.959,35.912c0,0.527-0.401,0.954-1.029,0.954c-0.603,0-1.005-0.427-0.992-0.954c-0.013-0.553,0.39-0.967,1.005-0.967
			S83.946,35.359,83.959,35.912z M81.987,43.761V37.62h1.909v6.141H81.987z"/>
		<path d="M87.565,35.861v1.759h1.368v1.406h-1.368v2.223c0,0.741,0.176,1.08,0.753,1.08c0.238,0,0.427-0.025,0.565-0.05
			l0.013,1.443c-0.252,0.101-0.704,0.164-1.243,0.164c-0.616,0-1.131-0.214-1.432-0.528c-0.353-0.363-0.528-0.954-0.528-1.82v-2.512
			h-0.815V37.62h0.815v-1.331L87.565,35.861z"/>
		<path d="M91.446,41.3c0.063,0.791,0.842,1.167,1.733,1.167c0.652,0,1.18-0.088,1.695-0.251l0.251,1.294
			c-0.628,0.251-1.395,0.377-2.223,0.377c-2.085,0-3.278-1.206-3.278-3.127c0-1.558,0.968-3.278,3.103-3.278
			c1.983,0,2.737,1.545,2.737,3.064c0,0.326-0.038,0.615-0.063,0.754H91.446z M93.694,39.993c0-0.465-0.201-1.243-1.08-1.243
			c-0.804,0-1.13,0.729-1.181,1.243H93.694z"/>
	</g>
</g>
</svg>
